<?xml version="1.0" encoding="UTF-8" standalone="no"?>
<!-- Created with Inkscape (http://www.inkscape.org/) -->

<svg
   width="210mm"
   height="297mm"
   viewBox="0 0 210 297"
   version="1.1"
   id="svg1"
   xml:space="preserve"
   inkscape:version="1.4 (86a8ad7, 2024-10-11)"
   sodipodi:docname="drawing.svg"
   xmlns:inkscape="http://www.inkscape.org/namespaces/inkscape"
   xmlns:sodipodi="http://sodipodi.sourceforge.net/DTD/sodipodi-0.dtd"
   xmlns="http://www.w3.org/2000/svg"
   xmlns:svg="http://www.w3.org/2000/svg"><sodipodi:namedview
     id="namedview1"
     pagecolor="#ffffff"
     bordercolor="#000000"
     borderopacity="0.25"
     inkscape:showpageshadow="2"
     inkscape:pageopacity="0.0"
     inkscape:pagecheckerboard="0"
     inkscape:deskcolor="#d1d1d1"
     inkscape:document-units="mm"
     inkscape:zoom="1.4378367"
     inkscape:cx="365.82736"
     inkscape:cy="367.56608"
     inkscape:window-width="1920"
     inkscape:window-height="1009"
     inkscape:window-x="1912"
     inkscape:window-y="-8"
     inkscape:window-maximized="1"
     inkscape:current-layer="layer1" /><defs
     id="defs1"><marker
       id="DistanceX"
       orient="auto"
       refX="0.0"
       refY="0.0"
       style="overflow:visible"><path
         d="M 3,-3 L -3,3 M 0,-5 L  0,5"
         style="stroke:#000000; stroke-width:0.5"
         id="path1-15" /></marker><pattern
       id="Hatch"
       patternUnits="userSpaceOnUse"
       width="8"
       height="8"
       x="0"
       y="0"><path
         d="M8 4 l-4,4"
         stroke="#000000"
         stroke-width="0.25"
         linecap="square"
         id="path2" /><path
         d="M6 2 l-4,4"
         stroke="#000000"
         stroke-width="0.25"
         linecap="square"
         id="path3" /><path
         d="M4 0 l-4,4"
         stroke="#000000"
         stroke-width="0.25"
         linecap="square"
         id="path4" /></pattern><symbol
       id="*MODEL_SPACE" /><symbol
       id="*PAPER_SPACE" /><marker
       id="DistanceX-2"
       orient="auto"
       refX="0.0"
       refY="0.0"
       style="overflow:visible"><path
         d="M 3,-3 L -3,3 M 0,-5 L  0,5"
         style="stroke:#000000; stroke-width:0.5"
         id="path1-7" /></marker><pattern
       id="Hatch-6"
       patternUnits="userSpaceOnUse"
       width="8"
       height="8"
       x="0"
       y="0"><path
         d="M8 4 l-4,4"
         stroke="#000000"
         stroke-width="0.25"
         linecap="square"
         id="path2-1" /><path
         d="M6 2 l-4,4"
         stroke="#000000"
         stroke-width="0.25"
         linecap="square"
         id="path3-4" /><path
         d="M4 0 l-4,4"
         stroke="#000000"
         stroke-width="0.25"
         linecap="square"
         id="path4-2" /></pattern><symbol
       id="*MODEL_SPACE-3" /><symbol
       id="*PAPER_SPACE-2" /></defs><g
     inkscape:label="Layer 1"
     inkscape:groupmode="layer"
     id="layer1"><g
       id="g9"
       transform="matrix(0.25603098,0,0,0.25603098,110.35963,-184.87827)"
       style="fill:#1c8c05;fill-opacity:1;stroke-width:3.90578;stroke-dasharray:none"><g
         inkscape:label="0"
         id="g6"
         style="fill:#1c8c05;fill-opacity:1;stroke-width:3.90578;stroke-dasharray:none"><path
           d="m 0,1198.1102 -0.272765,-0.4724 a 64.251969,64.251969 0 0 0 -25.681769,-24.7123 l -0.482584,-0.2544 a 56.692913,56.692913 0 1 1 52.873258,5e-4 l -0.480487,0.2533 a 64.251969,64.251969 0 0 0 -25.682878,24.7129 z"
           style="fill:#1c8c05;fill-opacity:1;stroke:#000000;stroke-width:3.90578;stroke-dasharray:none"
           id="path6-6" /></g></g><g
       id="g10"
       transform="matrix(0.99275791,0,0,0.99275791,25.833701,0.17139754)"><g
         id="g11"
         transform="translate(-6.4493503,-0.07632721)"><circle
           style="fill:#fffafa;fill-opacity:1;stroke:#000000;stroke-width:1.00729;stroke-dasharray:none;stroke-opacity:1"
           id="path1-8"
           cx="91.591881"
           cy="103.16492"
           r="12.091187" /><path
           d="m 90.265903,92.485619 c -0.02791,0.03074 -0.04279,0.06951 -0.04279,0.111544 0,0.05175 -0.0074,0.0663 -0.03909,0.07275 -0.02606,0.0068 -0.03535,0.01782 -0.02791,0.03877 0.0055,0.01618 0.01487,0.05013 0.02233,0.07599 0.01306,0.04522 0.01306,0.04522 -0.06141,0.03557 -0.05582,-0.0097 -0.08,-0.0048 -0.09861,0.01456 -0.02048,0.02265 -0.01676,0.03883 0.02606,0.108318 0.05212,0.08245 0.05212,0.126096 0.0037,0.126096 -0.01676,0 -0.03721,0.01456 -0.04839,0.0323 -0.01487,0.02584 -0.0093,0.05013 0.02606,0.116398 0.05956,0.108318 0.04094,0.130946 -0.0707,0.07922 -0.148854,-0.07114 -0.167459,0.01292 -0.04094,0.1843 0.113496,0.15196 0.150712,0.215004 0.135826,0.22794 -0.0055,0.0068 -0.08,-0.02265 -0.1656,-0.06468 -0.08373,-0.04204 -0.169318,-0.07437 -0.191643,-0.07114 -0.03164,0.0048 -0.03721,0.01456 -0.03349,0.08083 0.0055,0.0776 0.06141,0.181062 0.107913,0.197228 0.01487,0.0048 0.02791,0.01938 0.02791,0.03395 0,0.01292 0.03164,0.05175 0.07071,0.08729 0.03721,0.03393 0.08373,0.08568 0.102332,0.113159 0.02978,0.0453 0.02978,0.05013 0.0037,0.05013 -0.01676,0 -0.06327,-0.01456 -0.104196,-0.03231 -0.04094,-0.01938 -0.08187,-0.0291 -0.09118,-0.02428 -0.0093,0.0048 -0.05024,-0.0068 -0.09118,-0.02583 -0.08188,-0.03721 -0.167461,-0.03231 -0.208395,0.01135 -0.01861,0.01938 -0.01487,0.0323 0.01861,0.06787 0.02233,0.02428 0.04839,0.06305 0.05955,0.08729 0.01116,0.02584 0.02606,0.0453 0.0335,0.0453 0.0074,0 0.04652,0.03074 0.08745,0.06787 0.03909,0.03557 0.102342,0.09214 0.139552,0.124477 0.07816,0.0663 0.137683,0.143881 0.122798,0.156817 -0.0055,0.0048 -0.03534,-0.0034 -0.06885,-0.01775 -0.03164,-0.01456 -0.07442,-0.02101 -0.0949,-0.01618 -0.02606,0.0081 -0.06141,-0.0034 -0.109789,-0.03231 -0.05395,-0.03231 -0.08931,-0.04204 -0.132112,-0.03721 -0.0335,0.0048 -0.09303,-0.0034 -0.132112,-0.01618 -0.106049,-0.03557 -0.163737,-0.0097 -0.163737,0.07598 0,0.05175 0.01116,0.06951 0.06512,0.105079 0.06139,0.04204 0.08745,0.09052 0.04651,0.09052 -0.04464,0 -0.01306,0.03721 0.07072,0.08083 0.143266,0.07598 0.171178,0.097 0.171178,0.126097 0,0.01618 0.05396,0.05822 0.12467,0.100227 0.06699,0.03883 0.146993,0.100239 0.176761,0.137412 l 0.05582,0.06468 -0.05582,0.0048 c -0.03535,0.0034 -0.104196,-0.01618 -0.187925,-0.05175 -0.07257,-0.03231 -0.158156,-0.05822 -0.189786,-0.05822 -0.03909,0 -0.08,-0.01618 -0.122798,-0.04849 -0.06885,-0.05339 -0.09303,-0.05822 -0.160018,-0.03074 -0.03721,0.01456 -0.05956,0.01135 -0.12467,-0.01782 -0.06699,-0.0291 -0.09491,-0.03231 -0.19723,-0.02428 -0.08933,0.0097 -0.120941,0.01938 -0.128383,0.0404 -0.01676,0.04366 0.0074,0.07598 0.07815,0.113171 0.06141,0.03074 0.06327,0.03557 0.03721,0.06142 -0.03535,0.03395 -0.02606,0.04686 0.06699,0.108318 0.06327,0.0404 0.06886,0.04849 0.04279,0.0663 -0.01676,0.0097 -0.02977,0.02583 -0.02977,0.03394 0,0.0097 0.06885,0.04366 0.154433,0.0776 0.08373,0.03395 0.269796,0.127716 0.413068,0.210165 0.200951,0.114784 0.279097,0.169745 0.33864,0.239258 0.09676,0.109931 0.119083,0.172975 0.06512,0.172975 -0.05954,0 -0.167461,-0.04522 -0.189786,-0.07922 -0.0093,-0.01781 -0.01861,-0.04686 -0.01861,-0.06304 0,-0.0663 -0.225141,-0.19076 -0.316314,-0.172976 -0.04652,0.0097 -0.05953,0 -0.139552,-0.09861 l -0.08931,-0.106705 -0.08,0.0081 c -0.0707,0.0068 -0.09303,0 -0.152574,-0.0404 -0.06139,-0.04367 -0.07815,-0.04686 -0.161878,-0.03883 -0.07442,0.0081 -0.124671,0 -0.251187,-0.03721 -0.100478,-0.03074 -0.165599,-0.04204 -0.178626,-0.03236 -0.0335,0.02265 -0.0093,0.0873 0.05024,0.137414 0.02978,0.02428 0.05394,0.05978 0.05394,0.07922 0,0.01782 0.01676,0.0453 0.03721,0.06141 0.04465,0.0323 0.04839,0.05658 0.01116,0.06951 -0.07442,0.02428 -0.04651,0.09861 0.05769,0.15196 l 0.06885,0.03557 -0.04465,0.03074 c -0.04465,0.03074 -0.04652,0.03231 -0.01117,0.05495 0.02048,0.01292 0.10979,0.05658 0.200952,0.09701 0.107914,0.05013 0.163737,0.08407 0.163737,0.101852 0,0.01618 0.03909,0.0453 0.104196,0.07437 0.227002,0.103467 0.476329,0.239258 0.550755,0.302309 0.04465,0.03721 0.09861,0.07759 0.119084,0.09053 0.05582,0.03074 0.115356,0.177824 0.145131,0.352426 0.02418,0.150342 0.02232,0.185911 -0.01487,0.185911 -0.02232,-0.0014 -0.148853,-0.334642 -0.16932,-0.444572 -0.01861,-0.108319 -0.02791,-0.121251 -0.106049,-0.155198 -0.067,-0.03074 -0.0763,-0.03074 -0.117213,-0.0081 -0.06512,0.03721 -0.09676,0.03236 -0.107914,-0.01938 -0.0074,-0.03557 -0.03163,-0.05331 -0.106049,-0.08407 -0.0856,-0.03395 -0.100478,-0.03557 -0.160017,-0.01783 -0.06327,0.01938 -0.06885,0.01938 -0.115357,-0.02748 -0.02791,-0.02583 -0.09303,-0.07437 -0.145129,-0.106705 -0.0949,-0.05822 -0.16188,-0.07275 -0.184205,-0.04204 -0.02047,0.0291 -0.0856,0.01781 -0.145131,-0.02584 -0.05024,-0.03721 -0.067,-0.0404 -0.152574,-0.03074 -0.08188,0.0081 -0.100478,0.0048 -0.130255,-0.02428 -0.04279,-0.0404 -0.132112,-0.04367 -0.156294,-0.0034 -0.01673,0.02748 -0.03164,0.02748 -0.200951,0.01135 -0.100478,-0.0097 -0.197229,-0.01456 -0.213975,-0.01135 -0.05395,0.0097 -0.03909,0.06468 0.02233,0.09214 0.02978,0.01456 0.05582,0.03557 0.05582,0.04849 0,0.01135 0.02418,0.03722 0.05582,0.05658 0.06512,0.0404 0.07257,0.06468 0.01861,0.06468 -0.02048,0 -0.04279,0.01135 -0.05024,0.02748 -0.01306,0.02747 0.02047,0.05658 0.122797,0.105079 0.05209,0.02583 0.05582,0.03231 0.03536,0.06142 -0.03536,0.04686 0,0.08408 0.102331,0.111545 0.06885,0.01782 0.0856,0.0291 0.07815,0.05013 -0.0074,0.02101 0.02233,0.0453 0.12467,0.097 0.221418,0.113159 0.245608,0.145494 0.107913,0.145494 -0.05582,0 -0.08001,0.0097 -0.111642,0.04367 l -0.04093,0.0453 -0.03909,-0.04367 c -0.02233,-0.02428 -0.05956,-0.0663 -0.08373,-0.09376 -0.04839,-0.05331 -0.132113,-0.0663 -0.171182,-0.02428 -0.03349,0.03557 -0.08931,0.0291 -0.152574,-0.01618 -0.05953,-0.04367 -0.100467,-0.05013 -0.171179,-0.02265 -0.03536,0.01456 -0.05394,0.01291 -0.08745,-0.0081 -0.03164,-0.01938 -0.0856,-0.02583 -0.204673,-0.02583 -0.16746,0 -0.217696,0.01782 -0.184205,0.06467 0.01306,0.01782 0.0055,0.03231 -0.02418,0.05331 l -0.04094,0.02748 0.05209,0.03395 c 0.05769,0.03877 0.06512,0.06305 0.01488,0.06305 -0.01861,0 -0.04652,0.01135 -0.05956,0.02583 -0.02048,0.02266 -0.01861,0.0291 0.01116,0.04849 0.01861,0.01292 0.04094,0.02265 0.05024,0.02265 0.03164,0 0.01306,0.04204 -0.02606,0.05658 -0.08,0.03074 -0.0521,0.07598 0.06885,0.118011 0.06141,0.02101 0.115356,0.04204 0.119084,0.0453 0.01861,0.01618 -0.04652,0.05495 -0.09118,0.05495 -0.02791,0 -0.0707,0.01291 -0.0949,0.03074 -0.07442,0.05175 -0.04094,0.06952 0.299565,0.171363 0.135826,0.03877 0.167459,0.07922 0.07442,0.097 -0.05954,0.01135 -0.09861,0.05495 -0.07815,0.08405 0.0074,0.0081 0.06699,0.02101 0.130255,0.02748 0.06512,0.0068 0.189784,0.0291 0.275375,0.05175 0.0856,0.02101 0.184207,0.03883 0.217697,0.03883 0.130241,0 0.143268,0.06951 0.01673,0.08891 -0.04094,0.0048 -0.08933,0.02428 -0.107913,0.04204 -0.04279,0.0404 -0.07815,0.03884 -0.120941,-0.0068 -0.04652,-0.05331 -0.243746,-0.127716 -0.320032,-0.121251 -0.04466,0.0034 -0.06141,0.01292 -0.06512,0.0404 -0.0093,0.05495 -0.06141,0.04522 -0.163738,-0.02748 -0.102331,-0.07275 -0.173042,-0.08245 -0.227,-0.03074 -0.03909,0.03557 -0.06512,0.03883 -0.184206,0.02101 -0.06142,-0.0081 -0.09118,-0.0034 -0.141409,0.02428 -0.05209,0.02748 -0.09303,0.03395 -0.215837,0.03395 -0.16932,0 -0.186064,0.0081 -0.277237,0.139025 l -0.04466,0.06142 0.04279,0.02583 c 0.02605,0.01939 0.0335,0.03074 0.01861,0.03877 -0.01117,0.0068 -0.02048,0.01938 -0.02048,0.02748 0,0.01783 0.01116,0.02101 0.126527,0.04686 0.113495,0.02583 0.106049,0.04686 -0.01861,0.07114 -0.02978,0.0068 -0.05212,0.02101 -0.05212,0.03395 0,0.0404 0.07815,0.06787 0.256769,0.09052 0.09303,0.01135 0.171181,0.02584 0.171181,0.03075 0,0.005 -0.05582,0.02584 -0.12467,0.04525 -0.150714,0.04197 -0.230721,0.08885 -0.199091,0.116335 0.01306,0.01135 0.08745,0.02269 0.16746,0.02748 0.08187,0.0038 0.249328,0.01286 0.373991,0.01942 0.126528,0.0063 0.234443,0.01613 0.240025,0.02269 0.0093,0.0076 -0.04094,0.02269 -0.184205,0.05016 -0.02791,0.0063 -0.05769,0.02269 -0.06327,0.03554 -0.02233,0.05016 0.04279,0.076 0.212115,0.08886 0.08931,0.0063 0.227,0.02433 0.303287,0.03718 0.0763,0.01449 0.189786,0.02583 0.251188,0.02748 0.204673,0.0038 0.243746,0.03075 0.08,0.05495 -0.09117,0.01286 -0.09117,0.05016 0,0.07109 0.03721,0.01009 0.232583,0.03883 0.431673,0.0663 0.582383,0.08079 0.917303,0.151966 1.16291,0.245729 0.25863,0.1002 0.297702,0.13903 0.349804,0.350796 0.04094,0.16166 0.08,0.98453 0.05024,1.01039 -0.03163,0.0275 -0.137682,-0.0808 -0.173042,-0.17135 -0.03909,-0.11154 -0.09676,-0.45104 -0.09118,-0.55127 0.0074,-0.1358 -0.187927,-0.447806 -0.264214,-0.421946 -0.01861,0.006 -0.07071,-0.0291 -0.154435,-0.10511 -0.1228,-0.11155 -0.128384,-0.11319 -0.193509,-0.10021 -0.03721,0.008 -0.0856,0.0291 -0.107914,0.0485 -0.02048,0.0178 -0.05212,0.0339 -0.06885,0.0339 -0.03163,0 -0.02978,0.0161 0.0037,0.13257 0.0093,0.0388 0.0055,0.0452 -0.02978,0.0452 -0.03909,0 -0.04094,0.005 -0.03164,0.0921 0.0055,0.0518 0.01861,0.12453 0.02791,0.16327 0.02233,0.0905 -0.0037,0.10349 -0.0707,0.0339 -0.04839,-0.0518 -0.07442,-0.13094 -0.124669,-0.378172 -0.01487,-0.076 -0.04839,-0.10991 -0.200952,-0.20047 -0.16746,-0.09856 -0.219558,-0.103475 -0.228861,-0.0211 -0.0055,0.0469 -0.01306,0.0533 -0.04466,0.0469 -0.02978,-0.006 -0.04279,10e-4 -0.05769,0.0388 -0.01116,0.0258 -0.03163,0.0469 -0.04652,0.0469 -0.02978,0 -0.07815,-0.0954 -0.07815,-0.153576 0,-0.0339 -0.0093,-0.04034 -0.05582,-0.04034 -0.03721,0 -0.05582,-0.0076 -0.05582,-0.02433 0,-0.03882 -0.07815,-0.08885 -0.135825,-0.08885 -0.03909,0 -0.07442,-0.01778 -0.119085,-0.05659 -0.0763,-0.06781 -0.120942,-0.07109 -0.152572,-0.01286 -0.01488,0.02583 -0.03165,0.05659 -0.03909,0.06957 -0.0074,0.01286 -0.04464,0.02584 -0.08188,0.02912 -0.06141,0.005 -0.08188,-0.005 -0.158156,-0.06629 -0.05024,-0.04197 -0.115356,-0.07764 -0.152573,-0.08407 -0.03534,-0.0063 -0.07258,-0.01942 -0.0856,-0.02748 -0.01116,-0.0076 -0.05769,-0.01286 -0.102331,-0.01009 -0.06512,0.0038 -0.08373,0.01286 -0.102332,0.04689 -0.04839,0.08885 -0.122799,0.09541 -0.173041,0.0145 -0.01116,-0.01778 -0.03164,-0.03227 -0.04465,-0.03227 -0.01306,0 -0.06512,-0.01777 -0.115356,-0.04033 -0.150713,-0.0663 -0.249328,-0.05016 -0.249328,0.04196 0,0.02433 -0.0074,0.04852 -0.01488,0.05331 -0.0093,0.005 -0.06512,-0.01449 -0.126527,-0.04045 -0.122797,-0.05495 -0.193509,-0.05344 -0.25491,0.0038 -0.02977,0.02748 -0.04839,0.03075 -0.135825,0.02105 -0.0763,-0.0076 -0.111643,-0.005 -0.146993,0.01613 -0.02418,0.0145 -0.0707,0.02583 -0.100467,0.02583 -0.03164,0 -0.08373,0.01009 -0.117228,0.02269 -0.03349,0.01286 -0.102343,0.02911 -0.152574,0.03718 l -0.09303,0.01286 -0.0038,0.076 c -0.0018,0.06302 0.0038,0.076 0.03536,0.08407 0.03164,0.006 0.03349,0.0113 0.01306,0.0339 -0.03536,0.0372 0.0074,0.0599 0.08745,0.0469 0.06885,-0.0113 0.154433,0.004 0.154433,0.0243 0,0.008 -0.02978,0.0307 -0.06885,0.0502 -0.06141,0.0307 -0.06512,0.0355 -0.03721,0.0599 0.02978,0.0258 0.09676,0.0323 0.344219,0.0355 0.0521,0.001 0.09676,0.008 0.09676,0.0145 0,0.008 -0.06699,0.0307 -0.148853,0.0502 -0.154433,0.0403 -0.186065,0.0566 -0.150712,0.0874 0.02418,0.0211 0.318172,0.0485 0.491214,0.0452 0.133967,-0.004 0.213975,0.0101 0.187925,0.0291 -0.0093,0.006 -0.05394,0.0243 -0.100478,0.0388 -0.04652,0.0145 -0.106061,0.0339 -0.133969,0.042 -0.133966,0.0436 0.07071,0.11634 0.357247,0.12772 0.09676,0.005 0.346081,0.007 0.554476,0.007 0.206532,0 0.37027,0.005 0.362826,0.0113 -0.03535,0.0259 -0.223277,0.0647 -0.310728,0.0647 -0.07442,0 -0.111643,0.0101 -0.160016,0.0404 -0.07628,0.0485 -0.154435,0.0518 -0.217696,0.007 -0.02606,-0.0177 -0.06327,-0.0323 -0.08,-0.0323 -0.06327,0 -0.169319,0.0501 -0.189786,0.0889 -0.02606,0.0517 -0.04279,0.0501 -0.117228,-0.005 -0.0949,-0.0678 -0.223279,-0.13257 -0.266075,-0.13257 -0.04465,0 -0.08931,0.0339 -0.106061,0.0808 -0.01673,0.0469 -0.0763,0.0388 -0.12467,-0.0161 -0.05024,-0.0599 -0.137697,-0.0663 -0.187926,-0.0145 -0.02418,0.0243 -0.04279,0.0291 -0.07442,0.0194 -0.06699,-0.0211 -0.158156,-0.0129 -0.19537,0.0161 -0.01861,0.0145 -0.05769,0.0275 -0.0856,0.0275 -0.1749,0 -0.29026,0.0727 -0.316311,0.19561 -0.01306,0.063 0.0055,0.0792 0.08373,0.0792 0.04652,0 0.04465,0.0291 -0.0055,0.0647 -0.03536,0.0243 -0.03721,0.0323 -0.01673,0.0549 0.01306,0.0145 0.04652,0.0259 0.07442,0.0259 0.07442,0 0.13211,0.0177 0.13211,0.0388 0,0.0113 -0.05212,0.0339 -0.117227,0.0519 -0.08933,0.0258 -0.115357,0.0404 -0.115357,0.0647 0,0.0227 0.01861,0.0339 0.07442,0.0436 0.04094,0.006 0.126526,0.0243 0.189787,0.0356 0.06327,0.0129 0.143267,0.0243 0.180483,0.0243 0.03721,0 0.06698,0.006 0.06698,0.0145 0,0.0194 -0.09861,0.0631 -0.208393,0.0921 -0.05395,0.0147 -0.08931,0.0339 -0.08931,0.0469 0,0.0631 0.25677,0.10348 0.729377,0.11482 0.325614,0.0101 0.359107,0.0275 0.135826,0.0792 -0.05954,0.0129 -0.126528,0.0388 -0.148853,0.0566 -0.02233,0.0195 -0.0707,0.0405 -0.107914,0.0501 -0.07442,0.0177 -0.160016,0.10348 -0.13024,0.12933 0.0093,0.008 0.06141,0.0177 0.113496,0.0211 0.05397,0.004 0.10979,0.0145 0.122798,0.0259 0.02047,0.0129 0.07442,0.0161 0.193506,0.008 0.10979,-0.008 0.187927,-0.005 0.232584,0.006 0.05394,0.0162 0.08745,0.0129 0.200952,-0.0145 0.143266,-0.0339 0.323752,-0.042 0.368408,-0.0177 0.02606,0.0145 0.0038,0.0227 -0.169319,0.0583 -0.02791,0.006 -0.05955,0.0211 -0.07257,0.0339 -0.01116,0.0128 -0.05582,0.0308 -0.09861,0.0404 -0.102331,0.0243 -0.308869,0.10827 -0.308869,0.12771 0,0.0145 0.02418,0.0227 0.12467,0.0404 0.07257,0.0129 0.07815,0.0452 0.01673,0.0808 -0.02418,0.0145 -0.05769,0.0583 -0.0763,0.0971 -0.01673,0.0404 -0.03721,0.0727 -0.04652,0.0727 -0.01673,0 -0.05956,-0.14872 -0.06327,-0.22956 -0.0018,-0.0404 -0.02233,-0.0808 -0.06327,-0.12452 -0.08745,-0.0954 -0.143267,-0.0905 -0.254909,0.0177 l -0.0856,0.0857 -0.05769,-0.0614 c -0.113496,-0.12289 -0.2791,-0.15844 -0.327475,-0.0727 -0.02978,0.0549 -0.07815,0.0583 -0.154436,0.0101 -0.05024,-0.0323 -0.06141,-0.0339 -0.115355,-0.0145 -0.07442,0.0259 -0.08188,0.0259 -0.154436,0 -0.05212,-0.0177 -0.06699,-0.0161 -0.111643,0.0114 -0.03349,0.0194 -0.08931,0.0308 -0.146992,0.0323 -0.119084,9e-4 -0.25491,0.0227 -0.282819,0.0436 -0.01306,0.008 -0.02418,0.0356 -0.02418,0.0614 0,0.0243 -0.01306,0.0566 -0.02978,0.0696 -0.02606,0.0242 -0.02606,0.0274 0.0018,0.0356 0.02233,0.008 0.02791,0.0227 0.02047,0.0486 -0.0093,0.0308 -0.0038,0.0404 0.03349,0.0485 0.02606,0.005 0.05582,0.0194 0.06699,0.0308 0.01673,0.0178 0.0055,0.0259 -0.05397,0.0404 -0.133967,0.0308 -0.08,0.0727 0.133969,0.10348 0.07257,0.0114 0.133969,0.0274 0.137697,0.0372 0.0055,0.0114 -0.03721,0.0274 -0.100479,0.0388 -0.132112,0.0243 -0.17304,0.0404 -0.17304,0.0711 0,0.0339 0.10979,0.0533 0.353523,0.0647 0.253049,0.0113 0.334919,0.0211 0.334919,0.0388 0,0.008 -0.04465,0.0177 -0.09676,0.0227 -0.133968,0.0145 -0.405623,0.0938 -0.405623,0.11962 0,0.042 0.109778,0.0711 0.266072,0.0694 0.08373,0 0.247469,0.004 0.36283,0.008 0.20095,0.0113 0.262351,0.0291 0.158154,0.0501 -0.09861,0.0177 -0.182342,0.042 -0.219557,0.063 -0.02048,0.0101 -0.05956,0.0243 -0.08745,0.0308 -0.08373,0.0161 -0.182341,0.076 -0.182341,0.10662 0,0.0356 0.03535,0.0485 0.135825,0.0485 0.04279,0 0.08931,0.0114 0.107914,0.0259 0.02791,0.0227 0.05024,0.0227 0.160017,0.008 0.146992,-0.0194 0.493075,-0.0177 0.483771,0.005 -0.0038,0.008 -0.06327,0.0275 -0.133968,0.0436 -0.22328,0.0519 -0.295846,0.0744 -0.303288,0.0921 -0.01116,0.0323 0.178623,0.1002 0.286542,0.1002 0.08745,0 0.100467,0.005 0.100467,0.0308 0,0.0259 0.01861,0.0338 0.0856,0.0436 0.04652,0.005 0.128383,0.005 0.180482,-9.1e-4 0.05395,-0.006 0.213976,-0.0145 0.357247,-0.0177 0.143266,-9.1e-4 0.357247,-0.0129 0.476328,-0.0259 0.232581,-0.0227 0.277237,-0.0211 0.277237,0.0101 0,0.0145 -0.0521,0.0243 -0.173041,0.0308 -0.19723,0.0114 -0.262352,0.0291 -0.320033,0.0824 -0.02978,0.0291 -0.07071,0.0421 -0.156295,0.0501 -0.09118,0.0101 -0.120942,0.0194 -0.143267,0.0485 -0.01673,0.0211 -0.0521,0.042 -0.07815,0.0486 -0.02791,0.005 -0.08373,0.0339 -0.124672,0.0646 -0.07258,0.0549 -0.07258,0.0566 -0.03909,0.0808 0.02418,0.0145 0.0763,0.0243 0.143266,0.0243 0.06699,0 0.128385,0.0101 0.161877,0.0275 0.05024,0.0243 0.06885,0.0259 0.176764,0.006 0.107913,-0.0177 0.128383,-0.0177 0.165599,0.005 0.0521,0.0322 0.102332,0.0322 0.31631,0 0.0949,-0.0145 0.204673,-0.0227 0.243746,-0.0177 0.06885,0.008 0.100478,0.004 0.329336,-0.0549 0.113496,-0.0275 0.219558,-0.0452 0.468887,-0.0792 0.117212,-0.0145 0.46144,-0.004 0.46144,0.0177 0,0.006 -0.04465,0.0162 -0.09676,0.0226 -0.05396,0.006 -0.139553,0.0211 -0.189786,0.0339 -0.05024,0.0129 -0.148852,0.0227 -0.217699,0.0227 -0.10606,0 -0.133968,0.006 -0.180482,0.0404 -0.03164,0.0227 -0.06699,0.0404 -0.08187,0.0404 -0.04094,0 -0.0707,0.0339 -0.0707,0.0808 0,0.0388 0.0093,0.0436 0.126525,0.063 0.10979,0.0177 0.520984,0.0339 0.82241,0.0323 0.909862,-0.008 1.295015,0.004 1.490385,0.0469 0.266074,0.0583 0.621456,0.20046 0.753564,0.30231 0.05956,0.0469 0.111643,0.14064 0.132111,0.24249 0.0055,0.0259 0.02418,0.0631 0.04279,0.0808 0.0949,0.0971 0.178622,0.36859 0.195369,0.63856 0.01116,0.19078 0.02047,0.26515 0.0856,0.68708 0.04839,0.30878 0.06512,0.41385 0.08931,0.53349 0.02978,0.14064 0.02606,0.18591 -0.0093,0.18591 -0.05024,0 -0.312587,-0.14226 -0.383294,-0.20693 -0.03721,-0.0322 -0.07442,-0.0791 -0.08187,-0.10511 -0.02418,-0.063 0.0017,-0.38799 0.05024,-0.62887 0.03909,-0.20369 0.03909,-0.20532 0.0037,-0.25867 -0.02978,-0.0436 -0.04839,-0.0549 -0.113496,-0.0614 l -0.08,-0.008 0.05769,-0.0776 c 0.05582,-0.076 0.05769,-0.0905 0.02418,-0.194 -0.0037,-0.0161 -0.02606,-0.0274 -0.05212,-0.0274 -0.0763,0 -0.132113,-0.0275 -0.171183,-0.0841 -0.02791,-0.0404 -0.05582,-0.0583 -0.122799,-0.0744 -0.109789,-0.0243 -0.186067,-0.0243 -0.212114,-9.1e-4 -0.01676,0.0145 -0.03721,0.0145 -0.07815,-9e-4 -0.07815,-0.0275 -0.145133,-9.1e-4 -0.210252,0.0824 -0.05024,0.0598 -0.10979,0.0824 -0.135826,0.0485 -0.0074,-0.0129 -0.01861,-0.0808 -0.02791,-0.18106 0,-0.006 -0.02048,-0.0162 -0.04651,-0.0211 -0.02791,-0.006 -0.04652,-0.0227 -0.04652,-0.0404 0,-0.0308 -0.05397,-0.0824 -0.08745,-0.0824 -0.0093,0 -0.03349,-0.0145 -0.05211,-0.0324 -0.01861,-0.0178 -0.04839,-0.0323 -0.06512,-0.0323 -0.04279,0 -0.130241,0.0614 -0.130241,0.0889 0,0.0128 -0.03349,0.0308 -0.07442,0.0404 -0.07258,0.0161 -0.13024,0.076 -0.13024,0.13418 0,0.0114 -0.01861,0.0356 -0.04279,0.0533 -0.02978,0.0227 -0.05024,0.0663 -0.067,0.14389 -0.01487,0.063 -0.04093,0.12932 -0.05954,0.15034 l -0.0335,0.0372 -0.02048,-0.0339 c -0.01306,-0.0211 -0.02048,-0.11647 -0.01861,-0.24735 0,-0.11797 -0.0017,-0.24735 -0.0074,-0.28776 -0.01117,-0.0986 -0.05769,-0.17621 -0.104196,-0.17621 -0.02048,0 -0.05209,-0.0161 -0.07258,-0.0356 -0.05582,-0.0519 -0.135825,-0.0938 -0.178622,-0.0938 -0.05394,0 -0.171179,0.10991 -0.186064,0.17781 -0.0074,0.0308 -0.0335,0.0727 -0.05769,0.0922 -0.02606,0.0211 -0.04465,0.0549 -0.04465,0.0808 0,0.0597 -0.03535,0.16652 -0.05395,0.16652 -0.04652,0 -0.05394,-0.21986 -0.01116,-0.35566 0.01488,-0.0485 0.02791,-0.12125 0.02791,-0.15842 0,-0.0583 -0.0074,-0.0727 -0.03721,-0.0793 -0.02233,-0.005 -0.05024,-0.0291 -0.06698,-0.0549 -0.02048,-0.0372 -0.03909,-0.0469 -0.08745,-0.0469 -0.04094,0 -0.06699,0.0114 -0.08373,0.0323 -0.01306,0.0194 -0.04279,0.0404 -0.06699,0.0485 -0.04839,0.0162 -0.215836,0.21986 -0.215836,0.26352 0,0.0145 -0.0074,0.0274 -0.01861,0.0274 -0.03164,0 -0.05582,-0.0614 -0.05582,-0.14386 0,-0.0744 -0.03721,-0.15845 -0.09676,-0.22311 -0.02978,-0.0322 -0.182344,-0.0711 -0.217697,-0.0549 -0.01673,0.008 -0.05954,0.0518 -0.09488,0.0971 -0.03536,0.0452 -0.07258,0.0808 -0.08373,0.0776 -0.0093,-0.004 -0.03721,-0.0486 -0.05955,-0.10021 -0.04839,-0.10675 -0.10606,-0.16975 -0.158156,-0.16975 -0.05024,0 -0.107913,0.0291 -0.107913,0.0549 0,0.0129 -0.01306,0.0308 -0.02791,0.042 -0.02233,0.0161 -0.03535,0.0114 -0.07442,-0.0259 -0.02606,-0.0243 -0.04652,-0.0566 -0.04652,-0.0711 0,-0.0501 -0.107914,-0.0663 -0.148854,-0.0243 -0.03535,0.0372 -0.08931,0.0291 -0.115356,-0.0211 -0.02048,-0.0339 -0.03535,-0.042 -0.0707,-0.0372 -0.02605,0.004 -0.126525,0.006 -0.223278,0.008 l -0.176763,9.1e-4 -0.01861,0.10827 c -0.01116,0.0599 -0.0335,0.12126 -0.05024,0.13743 -0.04094,0.0388 -0.04279,0.0792 -0.0055,0.0922 0.03535,0.0114 0.03535,0.0485 0,0.0744 -0.04652,0.0339 -0.03164,0.0598 0.0521,0.1002 0.102342,0.0485 0.100478,0.0808 -0.0038,0.10349 -0.173042,0.0356 -0.148853,0.10674 0.0521,0.16812 0.07442,0.0227 0.135827,0.0469 0.135827,0.0566 0.0018,0.008 -0.02606,0.0274 -0.05769,0.0404 -0.269796,0.11482 -0.163737,0.19398 0.266073,0.20208 0.154435,0.004 0.208395,0.0291 0.100478,0.0469 -0.07815,0.0129 -0.275376,0.0938 -0.318173,0.12933 -0.04279,0.0372 -0.04094,0.0501 0.01861,0.0986 0.04839,0.0388 0.05956,0.0404 0.22886,0.0338 0.09676,-0.004 0.199091,-0.0145 0.227001,-0.0242 0.07815,-0.0259 0.426089,-0.0533 0.489352,-0.0372 0.05024,0.0129 0.04279,0.0162 -0.08373,0.0339 -0.267934,0.0372 -0.336778,0.0533 -0.368411,0.0808 -0.01673,0.0162 -0.07442,0.0485 -0.128382,0.0744 -0.09303,0.0436 -0.128385,0.0776 -0.107914,0.10664 0.0055,0.006 0.06699,0.0274 0.135825,0.0436 0.152576,0.0356 0.400041,0.0339 0.645647,-0.005 0.186067,-0.0308 0.921026,-0.0518 1.095927,-0.0338 0.187928,0.0211 0.08931,0.042 -0.195369,0.042 -0.186064,0 -0.293983,0.006 -0.320033,0.0194 -0.02233,0.0114 -0.111643,0.0243 -0.19909,0.0291 -0.126526,0.006 -0.173041,0.0177 -0.219557,0.0469 -0.03721,0.0226 -0.117228,0.0452 -0.210253,0.0597 -0.08931,0.0129 -0.16932,0.0356 -0.197231,0.0549 -0.06327,0.042 -0.09118,0.0404 -0.160016,-0.0101 -0.04465,-0.0339 -0.06885,-0.0388 -0.113496,-0.0308 -0.03164,0.006 -0.10606,0.01 -0.167459,0.01 -0.06885,-9.1e-4 -0.122799,0.006 -0.150714,0.0211 -0.02791,0.0161 -0.100478,0.0259 -0.208393,0.0291 l -0.163737,0.005 0.0055,0.0792 c 0.0038,0.0566 -0.0018,0.0857 -0.02606,0.10991 -0.02791,0.0243 -0.02978,0.0372 -0.01306,0.0614 0.02606,0.0338 0.0038,0.0566 -0.05954,0.0679 -0.07257,0.0114 -0.05394,0.0583 0.04465,0.10512 0.05212,0.0243 0.09117,0.0518 0.08931,0.0614 -0.0038,0.008 -0.03909,0.0211 -0.07815,0.0274 -0.0763,0.0145 -0.102332,0.0339 -0.102332,0.0792 0,0.0308 0.236304,0.11154 0.321892,0.11154 0.09676,0 0.05024,0.0308 -0.113495,0.0744 -0.202811,0.0533 -0.227,0.0711 -0.169319,0.11797 0.03909,0.0323 0.06327,0.0338 0.331197,0.0338 0.290262,0 0.346082,0.0114 0.160016,0.0339 -0.05582,0.006 -0.122799,0.0259 -0.148852,0.0436 -0.02606,0.0194 -0.07442,0.0388 -0.107913,0.0436 -0.0335,0.006 -0.09861,0.0275 -0.146991,0.0452 -0.111642,0.0452 -0.113496,0.0857 -0.0055,0.13257 0.06885,0.0291 0.117213,0.0323 0.614015,0.0338 0.556337,0.004 0.883812,0.0177 0.883812,0.0388 0,0.006 -0.16932,0.0161 -0.375852,0.0177 -0.323754,0.005 -0.385155,0.0114 -0.42423,0.0338 -0.02978,0.0194 -0.08,0.0291 -0.148853,0.0291 -0.06699,0 -0.13024,0.0114 -0.176761,0.0322 -0.03909,0.0177 -0.102332,0.0372 -0.137683,0.042 -0.03721,0.006 -0.107914,0.0291 -0.160016,0.0518 l -0.09118,0.0388 0.04279,0.0308 c 0.02418,0.0177 0.06327,0.0308 0.08745,0.0308 0.02418,0 0.05956,0.0145 0.0763,0.0323 0.02606,0.0259 0.05582,0.0323 0.148852,0.0323 0.08745,0 0.119085,0.006 0.132112,0.0275 0.01488,0.0226 0.04279,0.0243 0.210254,0.0162 0.120941,-0.005 0.206533,-9.1e-4 0.22886,0.008 0.02418,0.0114 0.256771,0.0177 0.645649,0.0194 0.54145,9.1e-4 0.658672,0.008 0.628902,0.0323 -0.0038,0.005 -0.09676,0.0128 -0.202813,0.0177 -0.133969,0.008 -0.217695,0.0211 -0.266074,0.042 -0.03909,0.0177 -0.107914,0.0308 -0.160015,0.0308 -0.119085,0 -0.206535,0.0274 -0.206535,0.0646 0,0.0291 -0.05394,0.0452 -0.210252,0.0582 -0.09303,0.008 -0.143267,0.0323 -0.143267,0.0711 0,0.0242 -0.01673,0.0339 -0.07442,0.042 -0.04279,0.006 -0.09861,0.0259 -0.124669,0.0436 -0.02791,0.0194 -0.07442,0.0452 -0.106061,0.0598 -0.02978,0.0128 -0.05954,0.0339 -0.06327,0.0452 -0.0093,0.0243 0.106061,0.0679 0.180484,0.0679 0.03164,0 0.06327,0.0113 0.07072,0.0243 0.01306,0.0194 0.04094,0.0211 0.180483,0.008 0.186067,-0.0194 0.227002,-0.0129 0.240025,0.0356 0.01116,0.0323 0.01673,0.0339 0.184204,0.0211 0.0949,-0.006 0.256772,-0.0145 0.359107,-0.0163 0.102343,-9e-4 0.256771,-0.0145 0.344222,-0.0308 0.407483,-0.0696 0.608435,-0.0905 0.90986,-0.0905 0.241885,0 0.33678,0.006 0.465163,0.0323 0.318175,0.0663 0.753566,0.20531 0.695887,0.22148 -0.01116,0.004 -0.150715,-0.0291 -0.30887,-0.0744 -0.39446,-0.1099 -0.757286,-0.15521 -0.967541,-0.11961 -0.126528,0.0227 -0.141411,0.0291 -0.137683,0.0598 0.0037,0.0323 -0.0055,0.0339 -0.189788,0.042 -0.133967,0.005 -0.197228,0.0145 -0.20281,0.0291 -0.01673,0.0436 -0.06327,0.0663 -0.165597,0.0776 -0.08373,0.008 -0.117214,0.0211 -0.158157,0.0582 -0.02606,0.0259 -0.07442,0.0533 -0.104195,0.0631 -0.05209,0.0161 -0.106049,0.0841 -0.08745,0.1099 0.0038,0.008 0.04279,0.0177 0.08187,0.0243 0.04094,0.005 0.09118,0.0259 0.111654,0.0436 0.02978,0.0274 0.05582,0.0338 0.135827,0.0308 0.156295,-0.006 0.167457,-0.004 0.154434,0.0308 -0.02048,0.0566 0.04839,0.0646 0.307008,0.0356 0.102331,-0.0114 0.22328,-0.0128 0.342358,-0.004 0.135825,0.0101 0.208394,0.008 0.277238,-0.008 0.05024,-0.0114 0.100479,-0.0177 0.113496,-0.0129 0.02233,0.008 0.483769,-0.0598 0.62518,-0.0905 0.325614,-0.0711 0.64937,-0.0679 0.816829,0.008 0.03164,0.0128 0.06512,0.0243 0.07442,0.0243 0.03535,0 0.293985,0.10826 0.478189,0.20207 0.09676,0.0485 0.182345,0.0889 0.186066,0.0889 0.0055,0 0.06885,0.0356 0.143266,0.0792 0.132112,0.0776 0.180485,0.13094 0.180485,0.19885 0,0.0194 0.02047,0.0969 0.04652,0.17298 0.09303,0.27644 0.212116,0.65796 0.230723,0.74526 0.06141,0.26512 0.148853,0.66928 0.169319,0.77597 0.01116,0.0663 0.03349,0.16651 0.04839,0.22148 0.03349,0.12771 0.03349,0.19723 0,0.20854 -0.02978,0.0101 -0.288405,-0.10826 -0.506099,-0.23118 -0.115355,-0.0646 -0.156296,-0.0986 -0.180483,-0.14549 -0.05582,-0.11635 -0.05394,-0.13902 0.02233,-0.2829 0.03909,-0.0727 0.08373,-0.17137 0.102332,-0.21501 0.139552,-0.3702 0.141409,-0.37668 0.141409,-0.52055 0,-0.18753 -0.03909,-0.22634 -0.145131,-0.14227 -0.04465,0.0356 -0.115357,0.0549 -0.115357,0.0324 0,-0.005 0.02978,-0.0598 0.067,-0.12289 0.05394,-0.0954 0.06512,-0.13257 0.06885,-0.22955 l 0.0037,-0.11634 h -0.09284 -0.09303 l -0.0093,-0.0971 c -0.0093,-0.10511 -0.01676,-0.10991 -0.152575,-0.0808 -0.05024,0.0114 -0.0521,0.01 -0.0521,-0.0469 0,-0.0599 -0.0055,-0.0631 -0.120941,-0.0776 -0.02233,-0.004 -0.03909,-0.0194 -0.04279,-0.042 -0.0055,-0.0323 -0.02418,-0.0436 -0.06698,-0.0372 -0.0074,9e-4 -0.03535,-0.008 -0.05956,-0.0227 -0.06699,-0.0372 -0.182345,-0.0308 -0.267934,0.0161 -0.04094,0.0226 -0.07442,0.0501 -0.07442,0.0614 0,0.0129 -0.02791,0.0323 -0.05956,0.0452 -0.05209,0.0194 -0.06141,0.0308 -0.06141,0.0792 0,0.0501 -0.0055,0.0566 -0.06512,0.0663 -0.08745,0.0163 -0.113496,0.0501 -0.09118,0.12126 0.01117,0.0308 0.01306,0.063 0.0074,0.0711 -0.0055,0.0101 -0.0521,0.0145 -0.100479,0.0129 -0.05394,-9e-4 -0.102331,0.005 -0.120941,0.0177 -0.04465,0.0323 -0.03721,0.1229 0.01676,0.20693 0.02606,0.0404 0.04465,0.0776 0.03909,0.0824 -0.0055,0.004 -0.05394,0 -0.10606,-0.008 -0.0856,-0.0145 -0.100478,-0.0129 -0.132112,0.0145 -0.03721,0.0323 -0.03163,0.0808 0.01487,0.12772 0.01486,0.013 0.02606,0.0323 0.02606,0.0404 0,0.008 0.03721,0.0501 0.08373,0.0938 0.04652,0.0436 0.08373,0.0857 0.08373,0.0922 0,0.0162 -0.04094,0.0259 -0.158155,0.0404 -0.119085,0.0145 -0.206533,0.0566 -0.19909,0.0969 0.01306,0.0824 0.02606,0.10347 0.07816,0.13095 0.03535,0.0177 0.05582,0.042 0.05582,0.0631 0,0.0338 0.120944,0.11961 0.169319,0.11961 0.01117,0 0.04839,0.0145 0.08188,0.0323 0.0707,0.0388 0.600995,0.19562 0.846599,0.25058 0.119084,0.0275 0.189789,0.0535 0.221419,0.0808 0.0707,0.0598 0.03163,0.0679 -0.0856,0.0177 -0.150712,-0.063 -0.336778,-0.12288 -0.390738,-0.12288 -0.04094,0 -0.04279,0.005 -0.03164,0.0598 0.0074,0.0339 0.01487,0.0663 0.01861,0.0726 0.0037,0.005 0.06885,0.0259 0.14141,0.0469 0.130242,0.0356 0.132113,0.0388 0.06699,0.0436 -0.04839,0.004 -0.12094,-0.0145 -0.251187,-0.0614 -0.390738,-0.14388 -0.716352,-0.17784 -1.283853,-0.13741 -0.219556,0.0161 -0.288402,0.0776 -0.178622,0.16004 l 0.05024,0.0388 -0.07256,0.0177 c -0.04094,0.0101 -0.09118,0.0177 -0.113496,0.0177 -0.06885,0 -0.227002,0.0485 -0.238163,0.0727 -0.0074,0.0177 -0.04094,0.0243 -0.137683,0.0243 -0.111643,0 -0.132113,0.005 -0.17118,0.0404 -0.02418,0.0227 -0.06512,0.0404 -0.09118,0.0404 -0.05769,0 -0.08373,0.0145 -0.100479,0.0518 -0.0074,0.0177 -0.03164,0.0291 -0.05582,0.0291 -0.0521,0 -0.143266,0.0566 -0.143266,0.0889 0,0.0129 0.01489,0.0291 0.0335,0.0372 0.05024,0.0242 0.282819,0.0338 0.39818,0.0177 0.06512,-0.0101 0.135825,-0.0101 0.182344,0 0.0614,0.0114 0.102343,0.006 0.22328,-0.0275 0.132111,-0.0372 0.152573,-0.0388 0.199088,-0.0194 0.03909,0.0177 0.122798,0.0211 0.342363,0.0177 0.240023,-0.005 0.299565,0 0.349801,0.0211 0.04652,0.0211 0.08931,0.0259 0.202813,0.0177 0.299566,-0.0211 0.59727,-0.10991 0.801941,-0.23927 0.135826,-0.0874 0.184208,-0.0986 0.360971,-0.0841 0.113495,0.0101 0.15071,0.0211 0.241882,0.0744 0.05956,0.0339 0.115357,0.063 0.12467,0.063 0.0093,0 0.08188,0.0259 0.161878,0.0566 0.212114,0.084 0.427951,0.2134 0.461442,0.2732 0.09676,0.17945 0.191647,0.40901 0.227001,0.54319 0.0055,0.0227 0.02048,0.0519 0.03349,0.0646 0.01306,0.0129 0.02791,0.0534 0.03164,0.0889 0.02048,0.13094 0.0763,0.26351 0.117213,0.27322 0.119086,0.0291 0.344222,-0.008 0.344222,-0.0549 0,-0.0101 -0.06698,-0.18915 -0.150713,-0.3993 -0.08188,-0.21178 -0.156292,-0.40739 -0.1656,-0.43326 -0.126526,-0.39283 -0.143266,-0.46235 -0.184202,-0.75173 -0.0093,-0.076 -0.02791,-0.19561 -0.03721,-0.26674 -0.01116,-0.0711 -0.02418,-0.19401 -0.03163,-0.27158 l -0.01306,-0.14227 0.06141,-0.0549 c 0.03535,-0.0308 0.113495,-0.11962 0.176761,-0.19723 0.06141,-0.0793 0.12467,-0.14228 0.139553,-0.14228 0.01486,0 0.02418,0.0114 0.02048,0.0243 -0.01487,0.0566 -0.02418,0.30878 -0.01306,0.36213 0.01676,0.0727 0.07071,0.0954 0.169321,0.0727 0.06512,-0.0162 0.07442,-0.0145 0.137683,0.0404 0.08187,0.0694 0.189785,0.0808 0.228859,0.0259 0.03536,-0.047 0.08373,-0.0405 0.165599,0.0242 0.0856,0.0663 0.163737,0.0744 0.249327,0.0243 0.07257,-0.042 0.10606,-0.0405 0.165599,0.008 0.06139,0.0486 0.145131,0.0533 0.197229,0.008 0.04279,-0.0372 0.10606,-0.0404 0.156297,-0.008 0.04651,0.0308 0.08373,0.0308 0.120941,9e-4 0.02418,-0.0194 0.04652,-0.0194 0.115356,-0.006 0.117228,0.0243 0.191649,0.006 0.176762,-0.0388 -0.0055,-0.0194 0,-0.0452 0.01117,-0.0566 0.01116,-0.0114 0.01487,-0.0356 0.0093,-0.0549 -0.0055,-0.0194 0.0017,-0.0518 0.01676,-0.0711 0.03536,-0.0452 0.01861,-0.0808 -0.04839,-0.10511 -0.07815,-0.0291 -0.08188,-0.0582 -0.0074,-0.0954 0.03535,-0.0177 0.06327,-0.0404 0.06327,-0.0485 0,-0.0243 -0.07815,-0.0663 -0.120941,-0.0663 -0.02233,0 -0.05582,-0.0114 -0.0763,-0.0243 -0.03536,-0.0242 -0.03536,-0.0242 0.0093,-0.0583 0.05769,-0.042 0.03721,-0.0776 -0.06512,-0.11154 -0.117227,-0.0388 -0.126527,-0.047 -0.09118,-0.0808 0.01676,-0.0162 0.02791,-0.0485 0.02418,-0.0744 -0.0055,-0.0469 -0.0037,-0.0469 0.08373,-0.0436 0.05024,0.004 0.10606,0.0114 0.12467,0.0211 0.01861,0.008 0.07258,0.0161 0.119084,0.0161 0.07257,0 0.08745,-0.006 0.107914,-0.0436 0.04094,-0.0711 0.07815,-0.0808 0.176764,-0.0469 0.05024,0.0161 0.126525,0.0308 0.171179,0.0323 0.07257,9e-4 0.0856,-0.004 0.113495,-0.0469 0.03162,-0.0469 0.03535,-0.0486 0.148853,-0.0436 0.160017,0.008 0.204672,-0.004 0.204672,-0.0533 0,-0.0227 0.0055,-0.042 0.01487,-0.042 0.0074,-9e-4 0.05397,-0.005 0.102342,-0.006 0.07442,-0.004 0.100479,-0.0129 0.143269,-0.0549 0.03164,-0.0291 0.07257,-0.0501 0.09861,-0.0501 0.06512,0 0.09861,-0.0404 0.06699,-0.076 -0.05024,-0.0598 -0.187928,-0.16651 -0.213975,-0.16651 -0.01676,0 -0.02606,-0.0178 -0.02606,-0.0566 v -0.0566 h -0.119018 c -0.117212,0 -0.12094,-9.1e-4 -0.126526,-0.0452 -0.0055,-0.0486 0.0017,-0.0469 -0.234442,-0.0291 -0.132112,0.0101 -0.135825,0.008 -0.12467,-0.0242 0.01306,-0.0339 0.01117,-0.0339 -0.165598,-0.0227 -0.119086,0.006 -0.178622,0.005 -0.178622,-0.005 0,-0.0101 0.0093,-0.0227 0.01861,-0.0274 0.02606,-0.0129 0.0055,-0.0404 -0.02418,-0.0323 -0.01306,0.004 -0.104196,0.0323 -0.206532,0.0646 -0.100478,0.0323 -0.187926,0.0533 -0.195371,0.0485 -0.01676,-0.0163 0.111643,-0.10348 0.184205,-0.12289 0.03535,-0.0101 0.145132,-0.0211 0.243746,-0.0259 0.156298,-0.008 0.19909,-0.004 0.351664,0.0356 0.141411,0.0339 0.195369,0.0404 0.279098,0.0323 0.05582,-0.006 0.16746,-0.0101 0.247468,-0.0101 0.09861,9e-4 0.16374,-0.006 0.202812,-0.0243 0.04466,-0.0194 0.0856,-0.0227 0.182345,-0.0145 0.111643,0.0101 0.133969,0.006 0.180481,-0.0226 0.04465,-0.0275 0.06327,-0.0308 0.126526,-0.0178 0.0763,0.0145 0.158157,0.006 0.158157,-0.0161 0,-0.006 0.04839,-0.0162 0.107914,-0.0227 0.202808,-0.0177 0.245603,-0.0274 0.245603,-0.0566 0,-0.0162 -0.01306,-0.042 -0.02791,-0.0599 -0.01487,-0.0163 -0.02791,-0.0404 -0.02791,-0.0518 0,-0.0114 -0.01861,-0.042 -0.04094,-0.068 -0.03534,-0.042 -0.05209,-0.0485 -0.133967,-0.0501 -0.130255,0 -0.240027,-0.0194 -0.24747,-0.042 -0.0055,-0.0114 0.0335,-0.0259 0.100478,-0.0388 0.158155,-0.0291 0.156291,-0.0421 -0.0055,-0.0549 -0.204673,-0.0145 -0.202812,-0.0145 -0.202812,-0.0404 0,-0.0356 -0.04094,-0.0469 -0.169321,-0.0469 -0.07815,-9e-4 -0.122798,-0.0101 -0.137682,-0.0259 -0.03349,-0.0356 -0.01487,-0.0452 0.09861,-0.0519 0.06885,-0.005 0.193509,0.0114 0.433534,0.0583 0.184205,0.0356 0.364688,0.0663 0.400041,0.0663 0.03349,0 0.122798,0 0.193508,0.004 0.152575,0.004 0.541455,-0.006 0.692166,-0.0177 0.01117,-9.1e-4 0.02418,-0.0145 0.02787,-0.0291 0.0055,-0.0243 0.02973,-0.0291 0.169318,-0.0308 0.09118,-9e-4 0.173046,-0.0101 0.184208,-0.0194 0.02607,-0.0227 -0.07444,-0.13257 -0.120941,-0.13257 -0.03718,0 -0.102331,-0.0274 -0.137682,-0.0583 -0.01306,-0.0114 -0.08373,-0.0291 -0.158158,-0.0388 -0.07444,-0.0114 -0.171172,-0.0372 -0.212111,-0.0599 -0.04283,-0.0211 -0.14885,-0.0501 -0.232583,-0.0631 -0.0856,-0.0145 -0.165599,-0.0322 -0.174902,-0.0388 -0.01116,-0.008 -0.09489,-0.0194 -0.186065,-0.0259 -0.160016,-0.0114 -0.163736,-0.0128 -0.09303,-0.0291 0.05024,-0.0101 0.176762,-0.008 0.390737,0.005 0.320033,0.0194 0.420506,0.0356 0.684719,0.10826 0.08002,0.0211 0.169321,0.0388 0.197234,0.0388 0.02974,0 0.115355,0.0211 0.189786,0.0469 0.07631,0.0259 0.174901,0.0519 0.219559,0.0566 0.04468,0.006 0.104196,0.0211 0.133966,0.0338 0.07069,0.0323 0.240024,0.0323 0.240024,9.1e-4 0,-0.0308 -0.160015,-0.14711 -0.338642,-0.24896 -0.139538,-0.0776 -0.303289,-0.14065 -0.480043,-0.18269 -0.145133,-0.0339 -0.130255,-0.0501 0.03718,-0.0388 0.154433,0.0114 0.50982,0.0922 0.530281,0.12289 0.0078,0.008 0.03163,0.0145 0.05581,0.0145 0.02231,0 0.100467,0.0243 0.169315,0.0549 0.288406,0.12124 0.524706,0.1196 0.318166,-0.004 -0.0428,-0.0275 -0.10416,-0.0711 -0.13767,-0.0986 -0.0335,-0.0275 -0.08184,-0.0533 -0.107963,-0.0599 -0.02601,-0.005 -0.04466,-0.0145 -0.03913,-0.0177 0.0168,-0.0145 0.221403,0.0452 0.325603,0.0971 0.0577,0.0275 0.13769,0.0727 0.17862,0.10185 0.0856,0.0598 0.247473,0.12452 0.273523,0.1099 0.009,-0.005 0.013,-0.0274 0.008,-0.0485 -0.0148,-0.0485 0.0297,-0.0518 0.12837,-0.0114 0.093,0.0388 0.11536,0.0114 0.0521,-0.0646 -0.0261,-0.0323 -0.0447,-0.0647 -0.0372,-0.0696 0.006,-0.005 0.054,0.008 0.10796,0.0308 l 0.0986,0.0404 0.0652,-0.0469 c 0.0372,-0.0274 0.0875,-0.047 0.11721,-0.047 0.0986,0 0.0558,-0.0436 -0.0818,-0.0889 -0.0745,-0.0243 -0.148759,-0.0501 -0.163659,-0.0583 -0.0148,-0.008 -0.0577,-0.0259 -0.093,-0.0388 -0.0353,-0.013 -0.10417,-0.042 -0.15071,-0.0646 -0.0465,-0.0211 -0.12094,-0.0436 -0.16375,-0.0501 -0.0503,-0.006 -0.113483,-0.0339 -0.167453,-0.0694 -0.0782,-0.0533 -0.0949,-0.0582 -0.19537,-0.0549 -0.12839,0.005 -0.17862,-0.0145 -0.17862,-0.0679 0,-0.084 -0.180479,-0.13903 -0.26793,-0.0808 -0.05956,0.0388 -0.115371,0.0308 -0.14141,-0.0227 -0.03907,-0.0824 -0.08,-0.10185 -0.23072,-0.10992 l -0.137695,-0.008 -0.08372,0.0663 c -0.09117,0.0744 -0.143282,0.0857 -0.143282,0.0323 0,-0.0696 -0.04469,-0.16328 -0.08187,-0.17461 -0.02232,-0.006 -0.13397,-0.0129 -0.249327,-0.0162 l -0.208394,-0.004 -0.07068,0.0614 c -0.03718,0.0339 -0.08188,0.0874 -0.09861,0.11798 -0.01676,0.0308 -0.04094,0.0744 -0.05397,0.0971 -0.01116,0.0227 -0.02978,0.0518 -0.04279,0.0646 -0.03536,0.0419 -0.310729,0.19884 -0.323753,0.18753 -0.0074,-0.006 0.04279,-0.0566 0.111643,-0.11155 0.06885,-0.0549 0.12467,-0.10991 0.12467,-0.1229 0,-0.0114 0.02418,-0.0598 0.05582,-0.10662 0.05582,-0.0841 0.05582,-0.0841 0.01861,-0.11319 -0.02418,-0.0194 -0.03721,-0.0501 -0.03721,-0.0889 0,-0.0388 -0.01306,-0.0694 -0.03721,-0.0888 -0.02048,-0.0161 -0.03721,-0.0469 -0.03721,-0.0679 0,-0.0211 -0.01306,-0.042 -0.02978,-0.0485 -0.01486,-0.005 -0.03721,-0.0259 -0.04652,-0.0469 -0.01861,-0.0452 -0.05769,-0.0485 -0.208394,-0.0145 -0.05954,0.0129 -0.124671,0.0243 -0.145132,0.0243 -0.02048,0 -0.06327,0.0227 -0.09488,0.0485 -0.02978,0.0274 -0.07257,0.0485 -0.09676,0.0485 -0.06327,0 -0.120941,0.0436 -0.133968,0.10512 -0.01116,0.0533 -0.03909,0.0857 -0.109789,0.12933 -0.03163,0.0177 -0.03721,0.0404 -0.03721,0.14872 -0.0017,0.10511 -0.01306,0.15197 -0.0707,0.28615 -0.115357,0.26673 -0.275378,0.46236 -0.375851,0.46236 -0.03909,0 -0.03535,-0.0163 0.02232,-0.0889 0.02791,-0.0356 0.09861,-0.13256 0.158155,-0.21664 0.09861,-0.14063 0.104196,-0.15518 0.07816,-0.18105 -0.02606,-0.0243 -0.02418,-0.0356 0.02791,-0.11482 0.03164,-0.0485 0.05769,-0.0938 0.05769,-0.0986 0,-0.006 -0.02606,-0.0227 -0.05769,-0.0372 -0.04652,-0.0194 -0.05582,-0.0323 -0.04466,-0.0598 0.03164,-0.0905 0.03164,-0.10511 -0.0055,-0.11482 -0.02791,-0.008 -0.03536,-0.0243 -0.03349,-0.0711 0.0017,-0.0533 -0.0037,-0.0599 -0.04839,-0.0647 -0.03909,-0.005 -0.05024,-0.0145 -0.05582,-0.0485 -0.0055,-0.0386 -0.01306,-0.0436 -0.0763,-0.042 -0.04651,9e-4 -0.09861,0.0194 -0.152574,0.0533 -0.04464,0.0275 -0.111642,0.0549 -0.152575,0.0631 -0.06141,0.0101 -0.07815,0.0242 -0.119083,0.0922 -0.05395,0.0938 -0.106061,0.1196 -0.254911,0.13257 -0.0763,0.006 -0.124669,0.0227 -0.171178,0.0533 -0.03535,0.0243 -0.09861,0.0566 -0.137697,0.0727 -0.04094,0.0177 -0.0856,0.0518 -0.102343,0.0792 -0.05209,0.0857 -0.10606,0.12289 -0.17676,0.12289 -0.07257,0 -0.107913,0.0243 -0.137683,0.0921 -0.03349,0.076 -0.08373,0.43488 -0.09488,0.67576 l -0.01116,0.22631 -0.04839,-0.004 c -0.02606,-9e-4 -0.08,-0.0129 -0.117228,-0.0274 -0.0707,-0.0259 -0.0707,-0.0259 -0.04092,-0.0663 0.01861,-0.0243 0.02978,-0.0744 0.02978,-0.13738 v -0.0971 H 93.9637 c -0.02978,0 -0.05582,-0.006 -0.05582,-0.0162 0,-0.008 0.02978,-0.063 0.06512,-0.11961 0.03535,-0.0583 0.06512,-0.11154 0.06512,-0.11961 0,-0.008 -0.02418,-0.0194 -0.05582,-0.0259 -0.05397,-0.008 -0.05582,-0.0129 -0.05582,-0.0889 0,-0.0436 -0.0074,-0.0857 -0.01861,-0.0905 -0.0093,-0.005 -0.01861,-0.0243 -0.01861,-0.0404 0,-0.0161 -0.04652,-0.0646 -0.102343,-0.10675 -0.100479,-0.076 -0.102332,-0.0776 -0.06699,-0.10991 0.04651,-0.0452 0.03165,-0.0711 -0.04652,-0.0841 -0.0763,-0.0129 -0.09303,-0.0308 -0.06141,-0.0663 0.02047,-0.0211 0.01861,-0.0275 -0.01117,-0.0469 -0.01861,-0.0129 -0.06141,-0.0227 -0.09117,-0.0227 -0.0707,0 -0.09491,-0.0145 -0.09491,-0.0566 0,-0.0275 -0.01487,-0.0323 -0.111643,-0.0372 -0.135825,-0.006 -0.160015,-0.0227 -0.10606,-0.0727 0.02233,-0.0211 0.04094,-0.0436 0.04094,-0.0501 0,-0.008 -0.05212,-0.0101 -0.115357,-0.004 -0.113495,0.0101 -0.115355,0.0101 -0.06512,-0.0162 0.06512,-0.0308 0.139554,-0.0338 0.273518,-0.008 0.186065,0.0372 0.277237,0.0404 0.314449,0.0114 0.01861,-0.0145 0.05768,-0.0291 0.08745,-0.0323 0.139552,-0.0161 0.206531,-0.0323 0.240024,-0.0583 0.06699,-0.0518 0.117212,-0.0646 0.238162,-0.0646 0.100478,0 0.126526,-0.006 0.16932,-0.0404 0.03909,-0.0323 0.0707,-0.0404 0.143267,-0.0404 0.06885,0 0.09861,-0.008 0.122812,-0.0323 0.01861,-0.0194 0.05582,-0.0323 0.08931,-0.0323 0.0707,0 0.25863,-0.0824 0.266072,-0.11633 0.0037,-0.0145 -0.02606,-0.0631 -0.06512,-0.10827 -0.06512,-0.076 -0.0763,-0.0824 -0.146992,-0.0824 -0.08373,0 -0.212114,-0.0388 -0.212114,-0.0646 0,-0.0101 0.07815,-0.0162 0.191646,-0.0162 0.158157,0 0.199089,-0.005 0.245606,-0.0323 0.03163,-0.0177 0.08,-0.0323 0.107914,-0.0323 0.05395,0 0.225137,-0.0678 0.245606,-0.0986 0.04279,-0.0583 0.266074,-0.0971 0.59727,-0.10185 l 0.165598,-9e-4 0.0055,-0.0452 0.0055,-0.047 0.25491,0.004 c 0.139555,9e-4 0.334918,-0.005 0.431674,-0.0163 0.09676,-0.0114 0.286539,-0.0211 0.418645,-0.0243 0.279095,-0.005 0.440977,-0.0242 0.450277,-0.0518 0.01306,-0.0323 -0.09861,-0.0808 -0.338637,-0.15033 -0.173041,-0.0501 -0.271654,-0.0679 -0.440976,-0.0808 -0.119084,-0.008 -0.240021,-0.0243 -0.269794,-0.0339 -0.04839,-0.0162 -0.05024,-0.0194 -0.01487,-0.0308 0.02047,-0.008 0.148852,-0.0145 0.28468,-0.0145 0.303287,-9.1e-4 0.814972,0.0694 1.032666,0.14225 0.0577,0.0194 0.398181,-0.004 0.42795,-0.0291 0.0465,-0.0403 -0.351662,-0.22469 -0.59727,-0.27481 -0.05214,-0.0113 -0.102342,-0.0274 -0.107913,-0.0356 -0.01676,-0.0242 0.437256,-0.0161 0.606576,0.0114 0.334918,0.0533 0.489347,0.0583 0.424231,0.0114 -0.01306,-0.0101 -0.104196,-0.0533 -0.200949,-0.0954 -0.145131,-0.0646 -0.167464,-0.0793 -0.128384,-0.0841 0.02795,-0.004 0.150714,0.0211 0.273521,0.0533 0.238164,0.0631 0.292121,0.0663 0.292121,0.0177 0,-0.0211 -0.03718,-0.042 -0.133972,-0.0776 -0.07444,-0.0275 -0.135825,-0.0566 -0.135825,-0.063 0,-0.0259 0.137679,-0.0145 0.275367,0.0211 0.106116,0.0259 0.139556,0.0308 0.158156,0.0145 0.0168,-0.0145 0.013,-0.0259 -0.0242,-0.0501 -0.0465,-0.0323 -0.041,-0.0372 0.028,-0.0338 0.0205,9.1e-4 0.0503,-0.005 0.0652,-0.0129 0.0633,-0.0372 -0.14886,-0.16166 -0.275377,-0.16329 -0.03533,0 -0.12466,-0.0211 -0.202812,-0.0485 -0.07631,-0.0275 -0.169317,-0.0486 -0.206529,-0.0486 -0.03719,-9.1e-4 -0.102355,-0.0114 -0.143268,-0.0243 -0.113495,-0.0356 -0.200951,-0.0308 -0.249333,0.0145 l -0.04283,0.0388 -0.109778,-0.0388 c -0.06136,-0.0194 -0.150713,-0.042 -0.197233,-0.0485 -0.0465,-0.006 -0.119084,-0.0274 -0.161884,-0.0485 -0.09488,-0.0469 -0.208384,-0.063 -0.279091,-0.0404 -0.05024,0.0178 -0.0521,0.0227 -0.04096,0.0841 0.01306,0.0694 -0.0093,0.11156 -0.05582,0.11156 -0.01486,0 -0.02606,-0.0101 -0.02606,-0.0227 0,-0.0114 -0.04839,-0.0469 -0.106061,-0.0808 -0.126525,-0.0679 -0.243747,-0.0776 -0.36841,-0.0274 -0.102331,0.0404 -0.150713,0.0938 -0.163736,0.17783 -0.01676,0.11961 -0.100478,0.13256 -0.139553,0.0227 -0.01861,-0.0485 -0.03909,-0.0711 -0.07815,-0.0857 -0.02978,-0.0113 -0.05953,-0.0323 -0.06512,-0.0485 -0.0055,-0.0162 -0.03721,-0.0372 -0.06885,-0.0469 -0.03349,-0.0101 -0.07442,-0.0308 -0.0949,-0.0452 -0.04839,-0.0388 -0.169321,-0.0308 -0.297705,0.0194 -0.09303,0.0372 -0.107914,0.0501 -0.12467,0.10663 -0.01116,0.0372 -0.03164,0.0631 -0.04839,0.0631 -0.01487,0 -0.03536,0.0177 -0.04465,0.0404 -0.01487,0.0338 -0.02978,0.0404 -0.09676,0.0404 -0.04465,0 -0.09676,0.0114 -0.11537,0.0243 -0.02048,0.0129 -0.05212,0.0243 -0.07256,0.0243 -0.01861,0 -0.08,0.0194 -0.135826,0.042 -0.09676,0.0404 -0.104196,0.0404 -0.137695,0.0145 -0.03164,-0.0259 -0.04839,-0.0259 -0.161877,-0.008 -0.06885,0.0101 -0.16932,0.0322 -0.219556,0.0501 -0.0521,0.0162 -0.113496,0.0308 -0.135826,0.0308 -0.05024,0 -0.141409,0.0388 -0.213974,0.0905 -0.02978,0.0211 -0.0707,0.0388 -0.09303,0.0388 -0.02232,0 -0.067,0.0129 -0.09861,0.0308 -0.04466,0.0243 -0.06139,0.0485 -0.08187,0.12126 -0.01486,0.0566 -0.03909,0.10184 -0.06327,0.11646 -0.02233,0.0129 -0.0521,0.0583 -0.06885,0.1002 -0.03164,0.0808 -0.04839,0.0874 -0.156295,0.0518 l -0.0521,-0.0177 0.04839,-0.0436 c 0.06327,-0.0566 0.107913,-0.16489 0.08373,-0.20207 -0.01116,-0.0177 -0.0093,-0.0388 0.0037,-0.0614 0.02606,-0.0388 0.01116,-0.0793 -0.02606,-0.0793 -0.01486,0 -0.03909,-0.0211 -0.05394,-0.0485 -0.02418,-0.042 -0.02418,-0.0501 0.0017,-0.0679 0.01487,-0.0114 0.06886,-0.0227 0.119084,-0.0227 0.12467,-0.004 0.122799,-0.004 0.13024,-0.0436 0.0055,-0.0323 0.01676,-0.0356 0.163738,-0.0436 0.17304,-0.0101 0.204671,-0.0194 0.204671,-0.0646 0,-0.0338 0.03536,-0.0485 0.119084,-0.0485 0.04279,0 0.0763,-0.0145 0.111643,-0.047 0.06327,-0.0583 0.05394,-0.0921 -0.02978,-0.10662 -0.03351,-0.006 -0.06885,-0.0162 -0.08,-0.0227 -0.0093,-0.005 -0.05582,-0.0211 -0.102332,-0.0338 -0.0614,-0.0177 -0.0856,-0.0339 -0.08931,-0.0614 -0.0093,-0.0549 -0.07258,-0.0808 -0.217696,-0.0921 -0.0707,-0.006 -0.167458,-0.0259 -0.213978,-0.0452 -0.05769,-0.0227 -0.135826,-0.0356 -0.251186,-0.0403 -0.117213,-0.005 -0.173042,-0.0145 -0.187926,-0.0308 -0.01676,-0.0211 -0.05024,-0.0211 -0.279101,0.004 -0.141409,0.0145 -0.353523,0.0485 -0.468883,0.0744 -0.331196,0.0744 -0.346083,0.0614 -0.06327,-0.0486 0.160016,-0.0614 0.200952,-0.0711 0.483771,-0.0986 0.349804,-0.0356 0.721933,-0.0404 1.138723,-0.0145 0.277237,0.0162 0.284679,0.0162 0.325612,-0.0177 0.03909,-0.0323 0.05024,-0.0339 0.232582,-0.0177 0.104196,0.0101 0.230723,0.0177 0.280957,0.0177 0.08188,0 0.0949,-0.005 0.10979,-0.042 0.01676,-0.0388 0.02606,-0.0419 0.08931,-0.0322 0.03721,0.006 0.100478,0.0145 0.139541,0.0211 0.08187,0.0101 0.124668,-0.0129 0.09117,-0.0485 -0.02978,-0.0308 -0.0093,-0.0436 0.07257,-0.0436 0.04651,0 0.07815,-0.0101 0.0949,-0.0291 0.01306,-0.0145 0.04651,-0.0372 0.0763,-0.0469 0.02791,-0.0114 0.05024,-0.0323 0.05024,-0.0452 0,-0.0323 -0.117227,-0.076 -0.173041,-0.0646 -0.03164,0.008 -0.05212,-9e-4 -0.08373,-0.0388 -0.03536,-0.042 -0.05582,-0.0501 -0.115356,-0.0501 -0.04652,0 -0.0856,-0.0114 -0.106049,-0.0291 -0.05956,-0.0535 -0.143268,-0.0711 -0.305148,-0.0646 -0.143266,0.005 -0.156294,9.1e-4 -0.161879,-0.0275 -0.01676,-0.0727 -0.03535,-0.0776 -0.282818,-0.068 -0.128383,0.005 -0.346084,0.0211 -0.48377,0.0356 -0.221418,0.0211 -0.275378,0.0339 -0.452139,0.0986 -0.111642,0.0404 -0.206534,0.0694 -0.212116,0.0646 -0.0074,-0.005 -0.0074,-0.0128 -0.0037,-0.0145 0.204675,-0.1455 0.667977,-0.291 0.937773,-0.29585 0.900558,-0.0194 1.135,-0.0308 1.135,-0.0549 0,-0.0194 0.03909,-0.0259 0.20467,-0.0323 0.210255,-0.008 0.25119,-0.0177 0.25119,-0.0566 0,-0.0145 0.03535,-0.0259 0.107913,-0.0323 0.137683,-0.0129 0.154437,-0.0194 0.1656,-0.0533 0.0037,-0.0145 0.03535,-0.0388 0.067,-0.0519 0.08931,-0.0356 0.08745,-0.076 -0.0037,-0.0971 -0.04279,-0.0101 -0.0763,-0.0242 -0.0763,-0.0323 0,-0.0388 -0.06327,-0.0647 -0.160017,-0.0647 -0.07258,0 -0.100478,-0.006 -0.100478,-0.0227 0,-0.0583 -0.04652,-0.0663 -0.465162,-0.0776 -0.187927,-0.006 -0.515403,0.0291 -0.688445,0.0727 -0.230719,0.0566 -0.260488,0.063 -0.260488,0.0436 0,-0.0338 0.29212,-0.14225 0.502375,-0.1859 0.16374,-0.0339 0.295844,-0.0469 0.567499,-0.0599 0.299567,-0.0145 0.359107,-0.0211 0.398181,-0.0469 0.02606,-0.0194 0.07442,-0.0308 0.120942,-0.0308 0.120941,0 0.212117,-0.029 0.256772,-0.0808 0.02232,-0.0275 0.0521,-0.0485 0.06512,-0.0485 0.02978,0 0.117213,-0.0776 0.117213,-0.10349 0,-0.0101 -0.03535,-0.0274 -0.07816,-0.0372 -0.321893,-0.0727 -0.318172,-0.0727 -0.539592,-0.063 -0.143266,0.006 -0.221417,0.004 -0.228859,-0.008 -0.0074,-0.0101 -0.0093,-0.0211 -0.0037,-0.0242 0.02791,-0.0243 0.303286,-0.0711 0.467026,-0.0792 0.152573,-0.008 0.193507,-0.0146 0.217694,-0.0404 0.02418,-0.0242 0.05956,-0.0323 0.176763,-0.0356 0.145129,-0.005 0.14699,-0.005 0.156296,-0.0501 0.0055,-0.0259 0.02791,-0.0533 0.05582,-0.0646 0.02418,-0.0114 0.05582,-0.0372 0.06885,-0.0599 0.02048,-0.0356 0.01676,-0.0436 -0.04094,-0.0922 -0.04279,-0.0372 -0.09303,-0.0582 -0.150712,-0.0678 -0.04652,-0.008 -0.0949,-0.0227 -0.10606,-0.0323 -0.03349,-0.0291 0.02606,-0.0678 0.119085,-0.0776 0.04465,-0.005 0.09861,-0.0227 0.119084,-0.0388 0.02047,-0.0161 0.067,-0.0404 0.102343,-0.0533 0.03535,-0.0128 0.102331,-0.0533 0.148853,-0.0905 l 0.08373,-0.068 -0.04279,-0.0291 c -0.02978,-0.0226 -0.05954,-0.0274 -0.10606,-0.0211 -0.148852,0.0211 -0.143266,-0.0873 0.0055,-0.13257 0.04652,-0.0129 0.146992,-0.0243 0.221419,-0.0243 0.18978,0 0.269793,-0.042 0.163738,-0.0841 -0.08002,-0.0308 -0.05581,-0.0583 0.06324,-0.0711 0.08931,-0.007 0.107913,-0.0145 0.100478,-0.0356 -0.0093,-0.0211 0.0055,-0.0227 0.102343,-0.0145 0.06324,0.005 0.115372,9e-4 0.115372,-0.005 0,-0.006 0.04469,-0.0227 0.09861,-0.0323 0.05214,-0.0113 0.104196,-0.0308 0.111655,-0.042 0.0078,-0.0128 0.03907,-0.0227 0.06887,-0.0227 0.07257,0 0.07069,-0.0243 -0.0039,-0.0583 -0.06145,-0.0275 -0.212118,-0.0501 -0.446555,-0.0647 -0.07445,-0.006 -0.133969,-0.0177 -0.146996,-0.0323 -0.02795,-0.0291 -0.143267,-0.0291 -0.20281,9.1e-4 -0.06139,0.0308 -0.126527,0.0308 -0.161876,-9.1e-4 -0.04465,-0.0388 -0.137683,-0.0194 -0.280962,0.0566 l -0.122796,0.0647 -0.06327,-0.0339 c -0.04279,-0.0227 -0.07815,-0.0291 -0.117227,-0.0227 -0.08,0.0129 -0.206532,0.097 -0.273515,0.18107 -0.06142,0.0744 -0.09491,0.0873 -0.133969,0.0469 -0.01306,-0.0129 -0.02978,-0.0243 -0.03721,-0.0243 -0.0074,0 -0.09118,0.0436 -0.184204,0.097 l -0.169322,0.0971 v 0.0889 c 0,0.0485 -0.0074,0.0888 -0.01487,0.0888 -0.0093,0 -0.04466,-0.0323 -0.07815,-0.0727 -0.03721,-0.042 -0.08373,-0.0776 -0.111642,-0.0824 -0.02606,-0.005 -0.06141,-0.0129 -0.07815,-0.0161 -0.03909,-0.0101 -0.184205,0.0792 -0.215836,0.13256 -0.0335,0.0549 -0.09676,0.063 -0.186066,0.0243 -0.04279,-0.0194 -0.09861,-0.0338 -0.124671,-0.0338 -0.03349,0 -0.04652,-0.007 -0.04652,-0.0323 0,-0.0275 -0.01306,-0.0323 -0.0707,-0.0323 -0.04094,0 -0.120941,-0.0145 -0.180485,-0.0323 -0.05954,-0.0177 -0.130239,-0.0323 -0.156294,-0.0323 -0.02606,0 -0.03909,-0.006 -0.02791,-0.0129 0.02233,-0.0194 0.373992,-0.0518 0.545171,-0.0518 0.0949,0 0.146993,-0.007 0.16746,-0.0227 0.01861,-0.0145 0.100478,-0.0308 0.20467,-0.0388 0.0949,-0.007 0.182347,-0.0243 0.193509,-0.0339 0.01116,-0.01 0.05769,-0.0177 0.102331,-0.0177 0.08931,0 0.227003,-0.0308 0.227003,-0.0485 0,-0.0227 -0.04466,-0.0452 -0.204674,-0.10675 -0.156294,-0.0599 -0.161877,-0.0599 -0.379573,-0.0583 -0.122799,9e-4 -0.215836,-0.004 -0.20467,-0.01 0.02048,-0.0161 0.446555,-0.10021 0.506095,-0.10021 0.02418,0 0.067,-0.0113 0.09676,-0.0243 0.02791,-0.0129 0.09861,-0.0291 0.156299,-0.0339 0.104196,-0.0113 0.215836,-0.0566 0.215836,-0.0873 0,-0.0291 -0.152574,-0.0792 -0.241886,-0.0824 l -0.08373,-9e-4 0.07443,-0.0211 c 0.04094,-0.0113 0.128384,-0.0436 0.19537,-0.0711 0.06699,-0.0275 0.132112,-0.0501 0.145131,-0.0501 0.0335,0 0.17118,-0.063 0.17118,-0.0776 0,-0.0372 -0.05582,-0.0519 -0.202812,-0.0533 -0.08931,0 -0.176761,-0.006 -0.197228,-0.0145 -0.03535,-0.0113 -0.03535,-0.0129 0.0093,-0.0275 0.02606,-0.0101 0.124671,-0.0323 0.217695,-0.0535 0.204676,-0.0436 0.299567,-0.0873 0.266077,-0.12126 -0.01116,-0.0129 -0.04465,-0.0243 -0.0707,-0.0275 -0.08,-0.007 -0.05954,-0.0485 0.04839,-0.0986 0.09676,-0.0452 0.128383,-0.0921 0.06141,-0.0921 -0.06141,0 -0.06327,-0.0307 -0.0017,-0.0614 0.04466,-0.0211 0.05395,-0.0356 0.04652,-0.063 -0.0074,-0.0258 0.0017,-0.0403 0.02791,-0.0533 0.02418,-0.01131 0.03721,-0.03391 0.03721,-0.06471 0,-0.0452 -0.0055,-0.0485 -0.06699,-0.0485 -0.06327,0 -0.126526,0.0114 -0.288401,0.0518 -0.04839,0.0114 -0.07815,0.0114 -0.107914,-0.004 -0.05582,-0.0243 -0.122797,-0.0101 -0.17304,0.0403 -0.04094,0.0403 -0.115357,0.0534 -0.135825,0.0243 -0.0055,-0.0101 -0.03721,-0.0161 -0.06699,-0.0161 -0.05582,0 -0.09118,0.0243 -0.180485,0.127628 -0.06885,0.0791 -0.117214,0.063 -0.160014,-0.0533 -0.0093,-0.0243 -0.02418,-0.0275 -0.07442,-0.0194 -0.04465,0.008 -0.09118,-0.001 -0.169317,-0.0308 -0.13397,-0.0518 -0.117228,-0.0727 0.06141,-0.0791 0.07257,-0.001 0.139553,-0.008 0.145131,-0.0145 0.0074,-0.006 -0.0074,-0.0243 -0.02978,-0.0405 -0.05954,-0.042 -0.0335,-0.0744 0.05024,-0.0597 0.04465,0.006 0.07815,0.001 0.109789,-0.0161 0.05769,-0.0323 0.05582,-0.0502 -0.0017,-0.063 -0.05769,-0.0129 -0.04652,-0.0355 0.02606,-0.0502 0.0521,-0.01009 0.187927,-0.101843 0.187927,-0.127719 0,-0.0063 -0.100478,-0.01135 -0.225138,-0.0076 -0.19723,0.0063 -0.227,0.0038 -0.241883,-0.02269 -0.02418,-0.03718 -0.141412,-0.03718 -0.232585,0 l -0.06699,0.02912 -0.04279,-0.04689 c -0.03721,-0.04045 -0.0521,-0.04525 -0.111643,-0.03718 -0.03721,0.005 -0.107913,0.03239 -0.160016,0.05823 -0.115357,0.06302 -0.137697,0.06302 -0.160016,-0.0038 -0.01487,-0.04852 -0.02232,-0.0518 -0.100478,-0.05016 -0.08,0 -0.150712,0.0339 -0.331197,0.155192 -0.05953,0.04034 -0.09303,0.03718 -0.113495,-0.01135 -0.01116,-0.02433 -0.03164,-0.04046 -0.05396,-0.04046 -0.01861,0 -0.104196,0.05495 -0.189788,0.122887 -0.146989,0.11482 -0.221416,0.16327 -0.221416,0.14549 0,-0.005 0.01487,-0.0339 0.03164,-0.0647 0.02978,-0.0566 0.02978,-0.0582 -0.01861,-0.0905 -0.04839,-0.0339 -0.04839,-0.03554 -0.02233,-0.09213 0.02791,-0.05823 0.01676,-0.08407 -0.03349,-0.08571 -0.03349,0 -0.206533,0.08571 -0.260495,0.130954 -0.03721,0.03075 -0.0707,0.04525 -0.09303,0.04034 -0.05769,-0.01286 -0.169322,0.0905 -0.215836,0.19723 -0.07257,0.174592 -0.169322,0.266742 -0.169322,0.161662 0,-0.0388 0.01306,-0.063 0.04652,-0.0841 0.02605,-0.0161 0.04652,-0.0388 0.04652,-0.0502 0,-0.0101 -0.02048,-0.0291 -0.04652,-0.0403 -0.04652,-0.0211 -0.06512,-0.0647 -0.02791,-0.0647 0.01116,0 0.01861,-0.0114 0.01861,-0.0243 0,-0.0129 -0.0074,-0.0243 -0.01861,-0.0243 -0.0093,0 -0.01861,-0.0101 -0.01861,-0.0227 0,-0.0145 0.03349,-0.0258 0.107914,-0.0323 0.20095,-0.0211 0.213975,-0.03554 0.08745,-0.100202 -0.04652,-0.02269 -0.07816,-0.04852 -0.07258,-0.05659 0.0055,-0.0076 0.05769,-0.0145 0.119085,-0.0145 0.08187,0 0.109789,-0.0063 0.119083,-0.02583 0.0093,-0.02105 0.03909,-0.02433 0.174901,-0.02105 0.09861,0.0038 0.178624,-0.0038 0.202812,-0.01449 0.02233,-0.01135 0.06512,-0.01942 0.09676,-0.01942 0.0763,0 0.07815,-0.05016 0.0017,-0.100202 -0.02978,-0.01942 -0.05582,-0.04525 -0.05582,-0.05659 0,-0.02912 0.05024,-0.03718 0.325616,-0.05016 0.22514,-0.01009 0.241884,-0.01286 0.241884,-0.04361 0,-0.02105 -0.02418,-0.04197 -0.06885,-0.06138 -0.03909,-0.0145 -0.07071,-0.0339 -0.07071,-0.04197 0,-0.0076 0.06512,-0.02583 0.145128,-0.04197 0.189789,-0.03554 0.245609,-0.05495 0.245609,-0.08885 0,-0.01449 -0.02233,-0.03554 -0.04839,-0.04689 -0.02606,-0.01009 -0.04465,-0.02748 -0.03909,-0.03883 0.0093,-0.02748 0.08745,-0.05987 0.148852,-0.05987 0.07816,0 0.128385,-0.02912 0.115357,-0.06468 -0.0074,-0.02266 0.0037,-0.03393 0.05582,-0.04849 0.06512,-0.01939 0.08188,-0.03721 0.04652,-0.05658 -0.02791,-0.01618 -0.02232,-0.0404 0.01487,-0.05175 0.01676,-0.0068 0.06699,-0.04204 0.10979,-0.07922 0.115357,-0.09861 0.09303,-0.108306 -0.262352,-0.10184 -0.25119,0.0048 -0.292124,0.0014 -0.323756,-0.02265 -0.04279,-0.03395 -0.126527,-0.03557 -0.212114,-0.0048 -0.06699,0.02584 -0.0949,0.01939 -0.113495,-0.02748 -0.01676,-0.0404 -0.119084,-0.03557 -0.20839,0.01292 -0.0949,0.05013 -0.135825,0.05013 -0.161878,0 -0.01116,-0.02101 -0.03535,-0.04367 -0.05209,-0.04849 -0.03164,-0.0081 -0.225138,0.06468 -0.351665,0.134183 -0.07442,0.0404 -0.0856,0.03557 -0.122798,-0.03883 -0.01487,-0.03074 -0.03536,-0.05495 -0.04652,-0.05495 -0.03721,0 -0.275381,0.108307 -0.366551,0.166509 -0.141409,0.09053 -0.184207,0.139032 -0.208394,0.240878 -0.01306,0.0518 -0.03164,0.09706 -0.04094,0.10184 -0.02791,0.01613 -0.04279,-0.04197 -0.02048,-0.07437 0.01306,-0.01613 0.02233,-0.08083 0.02418,-0.142263 0.0037,-0.139025 -0.02418,-0.182674 -0.133968,-0.213394 -0.0949,-0.02748 -0.117228,-0.06304 -0.04094,-0.06304 0.02791,-0.0014 0.115355,-0.01292 0.191645,-0.02584 0.0763,-0.01291 0.2177,-0.03074 0.312593,-0.03721 0.189786,-0.01456 0.254908,-0.04204 0.208394,-0.08891 -0.01306,-0.01456 -0.0335,-0.02584 -0.04839,-0.02584 -0.03351,0 -0.05212,-0.0323 -0.03164,-0.05013 0.01116,-0.0097 0.07257,-0.02748 0.137697,-0.0404 0.06512,-0.01292 0.137683,-0.02583 0.161874,-0.03074 0.05582,-0.01135 0.0521,-0.03721 -0.0093,-0.05821 l -0.0521,-0.01775 0.04465,-0.03074 c 0.02418,-0.01783 0.06512,-0.03557 0.09303,-0.04204 0.06885,-0.01292 0.09303,-0.03395 0.08188,-0.06951 -0.0074,-0.02583 0.0037,-0.0372 0.04839,-0.05013 0.03349,-0.0097 0.05769,-0.0291 0.05769,-0.04367 0,-0.01618 0.04279,-0.06141 0.0949,-0.101841 0.135826,-0.103466 0.119085,-0.114784 -0.152573,-0.108318 -0.158157,0.0034 -0.225139,-0.0014 -0.241885,-0.01618 -0.02978,-0.02428 -0.117227,-0.02583 -0.197229,0 -0.05397,0.01781 -0.06512,0.01618 -0.104207,-0.01618 -0.06327,-0.05175 -0.126526,-0.0453 -0.232584,0.02911 -0.05212,0.03395 -0.09861,0.07114 -0.106049,0.08083 -0.0055,0.0081 -0.02418,0.01618 -0.03721,0.01618 -0.01861,0 -0.02606,-0.01782 -0.02232,-0.0614 0.0037,-0.05822 0,-0.06142 -0.09303,-0.100239 -0.05394,-0.02265 -0.09676,-0.04686 -0.09303,-0.05495 0.0093,-0.02265 0.230721,-0.08407 0.351663,-0.097 0.05582,-0.0068 0.119085,-0.02265 0.137682,-0.03395 0.03349,-0.02265 0.03349,-0.02428 -0.0093,-0.05495 -0.05209,-0.03557 -0.04279,-0.05331 0.05582,-0.108318 0.05209,-0.02748 0.07257,-0.05013 0.07257,-0.07922 0,-0.02583 0.01861,-0.04849 0.05582,-0.06787 0.03163,-0.01618 0.05394,-0.0404 0.05212,-0.05331 -0.0037,-0.01456 0.02233,-0.05495 0.05582,-0.08891 0.06327,-0.06787 0.0763,-0.116398 0.0335,-0.130953 -0.01487,-0.0048 -0.10979,0 -0.210256,0.0097 -0.20281,0.02101 -0.236301,0.02101 -0.360964,0.0068 -0.07815,-0.0081 -0.09303,-0.0048 -0.154436,0.04204 -0.05954,0.04686 -0.07816,0.05175 -0.145131,0.04367 -0.09303,-0.01135 -0.126528,0.0034 -0.243747,0.09699 l -0.08931,0.07114 -0.05582,-0.0404 c -0.04094,-0.03075 -0.07815,-0.04204 -0.130241,-0.04204 -0.0949,0 -0.135825,0.01782 -0.243746,0.108306 l -0.0856,0.07437 -0.05024,-0.04367 c -0.02606,-0.02265 -0.06142,-0.04204 -0.0763,-0.04204 -0.05024,0 -0.163739,0.08245 -0.236305,0.171356 -0.07442,0.09053 -0.109778,0.105079 -0.163738,0.06141 -0.01861,-0.01456 -0.04839,-0.02101 -0.06699,-0.01618 -0.08931,0.02428 -0.219556,0.174596 -0.295842,0.342723 -0.02791,0.06141 -0.067,0.132562 -0.08373,0.158427 -0.02791,0.0404 -0.03535,0.04367 -0.04651,0.02101 -0.0055,-0.01618 -0.0055,-0.05175 0,-0.08083 0.0074,-0.0291 0.02048,-0.09053 0.02978,-0.139025 0.02232,-0.111545 0.145132,-0.278058 0.253051,-0.34273 0.04465,-0.02583 0.217696,-0.100226 0.383295,-0.164895 0.370271,-0.143876 0.526565,-0.221474 0.526565,-0.260272 0,-0.02265 0.05024,-0.04686 0.213978,-0.101841 0.117227,-0.03883 0.251188,-0.08244 0.295844,-0.09539 0.12467,-0.03395 0.141411,-0.05175 0.09488,-0.09538 -0.05212,-0.04849 -0.02978,-0.06305 0.193508,-0.111545 0.100479,-0.02265 0.187926,-0.0453 0.195368,-0.05013 0.0055,-0.0068 -0.0037,-0.02101 -0.02418,-0.03231 -0.05024,-0.0323 -0.02418,-0.06787 0.06139,-0.08083 0.08373,-0.01135 0.107914,-0.03074 0.117214,-0.08892 0.0037,-0.02583 0.02606,-0.04849 0.06142,-0.06468 0.07258,-0.03074 0.25119,-0.176213 0.25119,-0.203696 0,-0.03231 -0.06512,-0.04204 -0.182345,-0.02911 -0.05769,0.0068 -0.19351,0.01291 -0.301425,0.01456 -0.120941,0.0014 -0.219557,0.01135 -0.256772,0.02428 -0.05024,0.01939 -0.067,0.01939 -0.09861,0.0034 -0.05768,-0.03231 -0.280957,0.03393 -0.359105,0.105079 -0.06699,0.06305 -0.09861,0.06788 -0.115357,0.01456 -0.0055,-0.02265 -0.02233,-0.04367 -0.03721,-0.04849 -0.06512,-0.02101 -0.245607,0.10024 -0.277239,0.182681 -0.01676,0.04849 -0.08,0.05822 -0.135825,0.02265 -0.02606,-0.01781 -0.05024,-0.03883 -0.05582,-0.05013 -0.0037,-0.0097 0.04652,-0.05013 0.111643,-0.09053 0.06512,-0.0404 0.143267,-0.09053 0.1749,-0.113158 0.0335,-0.02265 0.06512,-0.04204 0.07071,-0.04204 0.0055,0 0.09118,-0.03231 0.187927,-0.07275 0.148851,-0.06142 0.17676,-0.07922 0.17676,-0.111546 0,-0.04849 0.03535,-0.07437 0.111642,-0.08245 0.08188,-0.0081 0.148865,-0.05013 0.148865,-0.09375 0.0017,-0.02265 0.02791,-0.05331 0.0763,-0.08407 0.04279,-0.02748 0.10606,-0.06787 0.14513,-0.09215 0.115357,-0.07275 0.09303,-0.08568 -0.13211,-0.08245 -0.165599,0.0034 -0.219557,0.01135 -0.321895,0.04686 -0.067,0.02265 -0.133968,0.03721 -0.150714,0.03231 -0.04466,-0.01456 -0.189786,0.03395 -0.271657,0.08892 -0.05024,0.03557 -0.08373,0.04686 -0.113495,0.0404 -0.02978,-0.0068 -0.06512,0.0081 -0.122799,0.04686 -0.0856,0.05821 -0.104196,0.0663 -0.120942,0.04367 -0.01676,-0.02428 0.197232,-0.197226 0.31073,-0.250574 0.06512,-0.03231 0.10606,-0.06142 0.10606,-0.07922 0,-0.01939 0.03351,-0.03721 0.119085,-0.05978 0.169319,-0.0453 0.269795,-0.09376 0.290263,-0.139025 0.0093,-0.02101 0.0335,-0.04204 0.05394,-0.04849 0.02048,-0.0048 0.06327,-0.04367 0.0949,-0.08407 0.07258,-0.09214 0.05582,-0.106693 -0.100478,-0.09376 -0.06512,0.0048 -0.135826,0 -0.171181,-0.01135 -0.05211,-0.01618 -0.07442,-0.01291 -0.171182,0.02428 -0.06139,0.02428 -0.132111,0.04367 -0.160016,0.04367 -0.02791,0 -0.107914,0.02583 -0.180485,0.05821 -0.186065,0.08083 -0.217696,0.06787 -0.100467,-0.0404 0.05024,-0.04686 0.135826,-0.109931 0.187926,-0.140644 0.05954,-0.03395 0.104196,-0.07437 0.115357,-0.101853 0.01116,-0.02911 0.06327,-0.07437 0.13211,-0.116397 0.0763,-0.04686 0.113495,-0.08084 0.113495,-0.101852 0,-0.01938 0.01676,-0.05658 0.03721,-0.08245 0.02233,-0.02911 0.03721,-0.07598 0.03721,-0.118011 0,-0.06142 -0.0037,-0.06787 -0.04465,-0.06787 -0.02418,0 -0.05394,0.01135 -0.06699,0.02428 -0.01306,0.01292 -0.03349,0.02427 -0.04651,0.02427 -0.01306,0 -0.07257,0.02101 -0.130241,0.04849 -0.05769,0.02583 -0.115356,0.04849 -0.128383,0.04849 -0.01117,0 -0.05769,0.02265 -0.102332,0.04849 -0.04465,0.02748 -0.0856,0.0453 -0.09118,0.04204 -0.02048,-0.01938 0.02048,-0.09376 0.09303,-0.164889 0.0949,-0.09377 0.115357,-0.119637 0.165596,-0.215012 0.07257,-0.132565 0.01306,-0.297461 -0.08373,-0.236028 -0.06512,0.0404 -0.182344,0.09215 -0.19165,0.08246 -0.0055,-0.0034 0.01306,-0.03883 0.03909,-0.07922 0.02606,-0.03883 0.04839,-0.08568 0.04839,-0.10184 0,-0.01782 0.01306,-0.04686 0.02791,-0.06467 0.03909,-0.0453 0.03535,-0.130953 -0.0074,-0.151967 -0.0521,-0.02265 -0.10606,-0.02101 -0.17118,0.0097 -0.06699,0.0291 -0.08931,0.01782 -0.05769,-0.02584 0.01306,-0.01782 0.02233,-0.04686 0.02233,-0.06305 0,-0.01783 0.0093,-0.03721 0.01861,-0.04204 0.01116,-0.0048 0.01861,-0.04204 0.01861,-0.08245 v -0.07275 l -0.09676,0.0048 c -0.09118,0.0048 -0.09861,0.0014 -0.104196,-0.03231 -0.0037,-0.02101 0.0074,-0.05658 0.02418,-0.07922 0.01861,-0.02428 0.02606,-0.05495 0.02048,-0.07922 -0.01116,-0.03393 -0.02232,-0.03883 -0.09676,-0.03883 h -0.08373 l 0.0055,-0.08406 c 0.0055,-0.07761 0.0017,-0.08407 -0.04094,-0.09376 -0.03909,-0.0081 -0.04652,-0.01782 -0.04094,-0.06468 0.0037,-0.03557 -0.0074,-0.06467 -0.03164,-0.0873 -0.02047,-0.01939 -0.03909,-0.05658 -0.04279,-0.08245 -0.0074,-0.0663 -0.067,-0.07113 -0.120943,-0.0097 z m -1.572254,4.867646 c 0.0074,0.03395 -0.04279,0.08891 -0.06699,0.07437 -0.01306,-0.0068 -0.02233,-0.03395 -0.02233,-0.05984 0,-0.04204 0.0055,-0.04849 0.04094,-0.04367 0.02418,0.0034 0.04466,0.01618 0.04839,0.0291 z m 0.563779,0.169739 c 0.295845,0.101853 0.333054,0.12125 0.413065,0.218242 0.06512,0.08083 0.06885,0.09376 0.06885,0.208544 0,0.06787 -0.0093,0.187531 -0.02048,0.268359 -0.03535,0.250583 -0.07442,0.21825 -0.107914,-0.08891 -0.02418,-0.213392 -0.02418,-0.210161 -0.199089,-0.454269 -0.06699,-0.09376 -0.210253,-0.097 -0.251192,-0.0048 -0.02791,0.06468 -0.07815,0.04367 -0.0949,-0.03883 -0.0074,-0.03721 -0.02977,-0.09053 -0.05212,-0.114784 -0.02048,-0.02584 -0.03721,-0.05175 -0.03721,-0.05658 0,-0.02265 0.08188,-0.0048 0.280958,0.06305 z m 2.454205,0.111545 c 0,0.0034 -0.01306,0.0323 -0.02791,0.06467 -0.02791,0.05658 -0.06885,0.07598 -0.09303,0.04204 -0.01861,-0.02748 0.04465,-0.113158 0.08373,-0.113158 0.02048,0 0.03721,0.0034 0.03721,0.0068 z m -0.604714,0.187529 c 0.01116,0.01618 -0.03909,0.124476 -0.06699,0.137414 -0.01487,0.0097 -0.07257,-0.07275 -0.07257,-0.103467 0,-0.0081 0.02233,-0.02265 0.0521,-0.03074 0.06699,-0.02265 0.07442,-0.02265 0.08745,-0.0034 z m -0.418647,0.139029 c 0,0.0048 -0.02048,0.03231 -0.04651,0.06142 -0.02606,0.02911 -0.04652,0.06468 -0.04652,0.07761 0,0.0291 -0.06327,0.08245 -0.08,0.0663 -0.0074,-0.0048 -0.01306,-0.02748 -0.01306,-0.04849 0,-0.03074 -0.0093,-0.03722 -0.05582,-0.03722 -0.06141,0 -0.07442,-0.03074 -0.02791,-0.06468 0.05209,-0.03721 0.269795,-0.08245 0.269795,-0.05495 z M 88.44246,98.36688 c 0.05024,0.01135 0.0074,0.04686 -0.0763,0.06141 -0.05582,0.0097 -0.07257,0.0048 -0.100467,-0.02428 -0.01861,-0.01938 -0.02791,-0.04204 -0.02232,-0.05175 0.01116,-0.01456 0.115355,-0.0068 0.199089,0.01456 z m 0.36655,0.08729 c 0.09676,0.02584 0.210254,0.05822 0.251187,0.06787 0.08188,0.02101 0.100479,0.06468 0.03164,0.07275 -0.02233,0.0034 -0.05024,0.01939 -0.05954,0.03557 -0.0093,0.01618 -0.03349,0.03395 -0.05024,0.03883 -0.01861,0.0048 -0.05212,0.03883 -0.0763,0.07437 -0.02418,0.03721 -0.0521,0.0614 -0.06327,0.05495 -0.0093,-0.0063 -0.03909,-0.05013 -0.06512,-0.100227 -0.02418,-0.04849 -0.07815,-0.12125 -0.119084,-0.161666 -0.0707,-0.07114 -0.0949,-0.132563 -0.05024,-0.132563 0.01306,0 0.102343,0.02265 0.200949,0.05013 z m 2.995657,0.142264 c 0,0.02265 -0.10979,0.09861 -0.141411,0.09861 -0.01486,0 -0.04652,0.03393 -0.06886,0.07598 -0.05582,0.103478 -0.167459,0.263511 -0.184203,0.263511 -0.02232,0 -0.03721,-0.06302 -0.02418,-0.111545 0.0074,-0.03075 0.0017,-0.0518 -0.01861,-0.06629 -0.01486,-0.01135 -0.02791,-0.03554 -0.02791,-0.05659 0,-0.02583 -0.01486,-0.03883 -0.05955,-0.05013 -0.03164,-0.0081 -0.06141,-0.02265 -0.06512,-0.03231 -0.0074,-0.01782 0.253048,-0.0873 0.331198,-0.0873 0.02418,-0.0014 0.06512,-0.01135 0.09118,-0.02428 0.0521,-0.02583 0.167461,-0.0323 0.167461,-0.0097 z m -2.372339,0.05495 c 0.07815,0.03883 0.180484,0.17298 0.202812,0.271593 0.02233,0.09049 0.03164,0.774367 0.01116,0.774367 -0.0093,0 -0.03909,-0.03554 -0.06512,-0.08079 -0.03721,-0.06466 -0.04652,-0.103479 -0.04652,-0.20208 0,-0.192374 -0.06327,-0.462352 -0.146993,-0.633714 -0.08931,-0.18106 -0.08373,-0.192376 0.04465,-0.129331 z m 1.628075,0.189151 c 0,0.03718 -0.08373,0.113183 -0.12467,0.113183 -0.07257,0 -0.09676,0.05495 -0.146993,0.35242 -0.0074,0.05331 -0.01861,0.06793 -0.04094,0.06466 -0.02047,-0.0038 -0.03349,-0.02433 -0.03721,-0.06138 -0.0074,-0.08571 -0.05397,-0.15842 -0.102331,-0.164885 -0.02233,-0.0038 -0.04839,-0.02106 -0.05956,-0.0421 -0.02606,-0.05016 -0.05582,-0.04525 -0.113496,0.02269 -0.02791,0.03075 -0.0856,0.07764 -0.130241,0.103479 -0.124669,0.076 -0.193506,0.166499 -0.262351,0.344328 -0.05582,0.147114 -0.06327,0.189144 -0.07442,0.410624 -0.0055,0.135796 -0.01861,0.247336 -0.02606,0.247336 -0.03164,0 -0.05769,-0.17135 -0.067,-0.447806 l -0.0093,-0.294209 0.05212,-0.114823 c 0.0521,-0.113183 0.05768,-0.117973 0.226999,-0.221489 0.09303,-0.05659 0.240023,-0.129317 0.325615,-0.160033 0.08373,-0.03075 0.199088,-0.07437 0.254909,-0.09541 0.16932,-0.0663 0.334919,-0.09377 0.334919,-0.05659 z m 1.326647,0.900449 c 0.0074,0.005 -0.03164,0.0372 -0.08931,0.0711 -0.06327,0.0403 -0.102332,0.076 -0.102332,0.0971 0,0.0227 -0.01306,0.0307 -0.0521,0.0307 -0.07258,0 -0.09861,0.0307 -0.199092,0.218246 -0.12467,0.23442 -0.143267,0.26675 -0.161877,0.26675 -0.02418,0 -0.01861,-0.0339 0.02233,-0.12934 0.05394,-0.12771 0.05024,-0.15196 -0.01861,-0.14065 -0.06512,0.0114 -0.06885,-10e-4 -0.02606,-0.0744 0.02978,-0.0485 0.02978,-0.0518 -0.0093,-0.0727 -0.02048,-0.0129 -0.03909,-0.0339 -0.03909,-0.0452 0,-0.10511 -0.485633,0.22956 -0.576802,0.39608 -0.04652,0.0873 -0.08,0.10184 -0.111631,0.0501 -0.01116,-0.0177 -0.03349,-0.0323 -0.04839,-0.0323 -0.01487,0 -0.03721,-0.0227 -0.04652,-0.0485 -0.02047,-0.0485 -0.03349,-0.055 -0.09676,-0.0502 -0.01861,0.004 -0.03909,-0.0129 -0.04839,-0.0355 -0.01116,-0.0227 -0.03909,-0.0436 -0.06699,-0.0502 -0.03909,-0.008 -0.06699,0.004 -0.160015,0.0744 -0.06141,0.0469 -0.124671,0.10184 -0.139554,0.12288 -0.02233,0.0291 -0.03909,0.0356 -0.08,0.0275 -0.04839,-0.0101 -0.05582,-0.004 -0.100479,0.0841 -0.111642,0.21663 -0.12094,0.25381 -0.135825,0.46882 -0.01306,0.20693 -0.01116,0.21016 0.04652,0.34596 0.0335,0.0792 0.05769,0.16975 0.05769,0.21178 0,0.0873 -0.04466,0.19076 -0.08187,0.19076 -0.02978,0 -0.03909,-0.0211 -0.05769,-0.12933 -0.0074,-0.0404 -0.03721,-0.13742 -0.06698,-0.215 -0.05209,-0.13903 -0.05395,-0.15359 -0.05395,-0.47206 v -0.32817 l 0.08,-0.0938 c 0.141409,-0.16812 0.221416,-0.21662 0.498654,-0.30069 0.137681,-0.042 0.333058,-0.0954 0.435393,-0.11798 0.102331,-0.0243 0.249329,-0.0597 0.325615,-0.0824 0.0763,-0.0211 0.202814,-0.0518 0.2791,-0.0696 0.0763,-0.0161 0.14141,-0.0372 0.143267,-0.0452 0.0037,-0.008 -0.02418,-0.0227 -0.06327,-0.0307 -0.178621,-0.0388 -0.02232,-0.0791 0.292124,-0.0744 0.126528,0.001 0.189786,-0.005 0.223281,-0.0211 0.04279,-0.021 0.182341,-0.0194 0.22886,0.004 z m 2.764935,0.355656 c -0.06885,0.076 -0.150712,0.1358 -0.174902,0.12772 -0.01487,-0.005 -0.05954,-0.0161 -0.100467,-0.0258 -0.04279,-0.0101 -0.0763,-0.0243 -0.0763,-0.0324 0,-0.0243 0.226998,-0.0921 0.323754,-0.0954 0.04839,-0.001 0.05024,10e-4 0.02791,0.0258 z m -8.728337,0.5723 c -0.01116,0.10183 -0.126525,0.0986 -0.126525,-0.004 0,-0.0436 0.0055,-0.0469 0.06699,-0.0469 0.06327,0 0.06512,9e-4 0.05954,0.0501 z m 0.446558,-0.0195 c 0.01861,0.007 0.176764,0.0101 0.360968,0.004 0.461443,-0.0145 0.502377,9e-4 0.143267,0.0566 -0.08,0.0113 -0.195371,0.0986 -0.213976,0.16004 -0.0055,0.0227 -0.02418,0.0404 -0.04094,0.0404 -0.05394,0 -0.09676,0.0502 -0.09676,0.11483 0,0.0339 -0.0074,0.0647 -0.01673,0.0695 -0.02791,0.0161 -0.0763,-0.0663 -0.09863,-0.1649 -0.02048,-0.0954 -0.08373,-0.16327 -0.204673,-0.22148 -0.02978,-0.0145 -0.05209,-0.0323 -0.05209,-0.0404 0,-0.0275 0.169319,-0.042 0.219557,-0.0177 z m 6.460196,0.17944 c 0,0.0177 -0.01306,0.0372 -0.02978,0.0436 -0.03163,0.0101 -0.160014,-0.0227 -0.208391,-0.0533 -0.02606,-0.0177 -0.01116,-0.0211 0.104207,-0.0227 0.122798,0 0.133968,0.004 0.133968,0.0324 z m -5.47963,0.0744 0.176764,0.0113 -0.0074,0.0485 c -0.0038,0.0258 -0.01861,0.0549 -0.03721,0.063 -0.01674,0.007 -0.04279,0.0356 -0.05769,0.0613 -0.01488,0.0258 -0.04652,0.0485 -0.06886,0.0518 -0.05954,0.006 -0.08187,0.10827 -0.04279,0.20532 0.02791,0.0711 0.02418,0.10349 -0.0074,0.0727 -0.02232,-0.0211 -0.0707,-0.17459 -0.0856,-0.27643 -0.0074,-0.0469 -0.02418,-0.0873 -0.03721,-0.0921 -0.01489,-0.005 -0.04465,-0.0388 -0.06512,-0.076 -0.03349,-0.0549 -0.03536,-0.0695 -0.01488,-0.0808 0.01306,-0.007 0.03536,-0.0113 0.04839,-0.006 0.01306,0.005 0.102331,0.0129 0.199089,0.0178 z m 0.772172,0.0711 c 0.117228,0.0161 0.258632,0.0356 0.31259,0.0404 0.104196,0.0113 0.135825,0.0388 0.09676,0.0824 -0.01676,0.0161 -0.04094,0.0211 -0.07442,0.0145 -0.04094,-0.007 -0.05394,-9e-4 -0.0707,0.0323 -0.01306,0.0227 -0.02233,0.0566 -0.02233,0.0727 0,0.0259 -0.01116,0.0308 -0.06885,0.0275 l -0.0707,-0.004 v 0.0971 c 0,0.0888 -0.0037,0.097 -0.04279,0.10185 -0.06327,0.007 -0.10979,-0.0372 -0.143268,-0.13418 -0.01487,-0.0469 -0.05394,-0.1196 -0.08745,-0.16328 -0.05209,-0.0679 -0.07071,-0.0792 -0.128383,-0.0841 -0.04466,-0.004 -0.08373,-0.0211 -0.119085,-0.0517 -0.102331,-0.0921 -0.03909,-0.097 0.418648,-0.0324 z m 3.918541,0.0533 c 0.0017,9e-4 -0.0017,0.0535 -0.0093,0.11634 -0.01116,0.10827 -0.01306,0.11318 -0.06141,0.11797 -0.02978,0.004 -0.05209,0.006 -0.05396,0.007 -0.0017,9e-4 -0.0055,0.0873 -0.0093,0.19076 -0.0074,0.2522 -0.08931,0.5157 -0.156299,0.5157 -0.02418,0 -0.02232,-0.0211 0.0093,-0.1374 0.03721,-0.12933 0.03535,-0.1358 -0.02048,-0.15358 -0.04279,-0.0145 -0.04652,-0.0227 -0.03535,-0.0614 0.02978,-0.1002 0.0017,-0.20208 -0.05397,-0.19561 -0.05209,0.005 -0.06699,-0.005 -0.06699,-0.0436 0,-0.0631 -0.03351,-0.10348 -0.08373,-0.10348 -0.02791,0 -0.04651,-0.0101 -0.04651,-0.0227 0,-0.0161 0.04094,-0.0258 0.14513,-0.0339 0.174904,-0.0129 0.28282,-0.0388 0.28282,-0.0663 0,-0.0308 -0.05394,-0.0711 -0.09676,-0.0711 -0.03721,0 -0.163738,-0.0583 -0.163738,-0.076 0,-0.007 0.413066,0.0101 0.420507,0.0161 z m 0.731237,0.0145 c 0,0.0113 -0.01487,0.0501 -0.03349,0.0857 l -0.0335,0.0647 -0.01116,-0.0727 c -0.0055,-0.0388 -0.0055,-0.0776 -0.0017,-0.0841 0.01486,-0.0211 0.08188,-0.0145 0.08,0.006 z m -3.845974,0.0841 c 0.139554,0.0533 0.293984,0.16329 0.293984,0.20855 0,0.0195 0.01487,0.0873 0.03536,0.14873 0.01861,0.063 0.04465,0.17136 0.05769,0.24249 0.01116,0.0711 0.02978,0.1649 0.03909,0.21017 0.0074,0.0436 0.02418,0.14225 0.03535,0.21825 0.02605,0.17944 0.07442,0.40414 0.09676,0.43972 0.04465,0.0776 -0.12467,-0.0194 -0.247466,-0.13905 -0.05954,-0.0598 -0.06141,-0.0631 -0.07442,-0.28128 -0.02791,-0.42516 -0.0521,-0.60785 -0.09676,-0.70809 -0.03909,-0.0857 -0.04839,-0.0954 -0.100478,-0.1002 -0.05212,-0.005 -0.05954,-0.0129 -0.08,-0.0841 -0.01487,-0.0517 -0.03721,-0.0873 -0.06699,-0.10511 -0.04839,-0.0275 -0.06139,-0.0889 -0.01676,-0.0889 0.01486,0 0.0707,0.0177 0.12467,0.0388 z m 2.221622,0.14064 c 0.02233,0.0308 -0.05394,0.12933 -0.120941,0.15358 l -0.06141,0.0227 0.01306,0.11155 0.01306,0.11154 -0.05394,0.006 c -0.0521,0.005 -0.0521,0.006 -0.04652,0.10511 0.0055,0.10828 -0.0093,0.12773 -0.08188,0.11156 -0.03535,-0.008 -0.04466,-0.0177 -0.03535,-0.0404 0.0055,-0.0161 -0.0074,-0.0469 -0.02978,-0.0727 -0.03535,-0.0388 -0.04839,-0.0436 -0.109778,-0.0339 -0.06141,0.01 -0.0707,0.006 -0.08187,-0.0275 -0.0055,-0.0211 -0.01116,-0.0549 -0.01116,-0.076 0,-0.0323 -0.0074,-0.0372 -0.05024,-0.0291 -0.03909,0.006 -0.06139,-0.004 -0.107913,-0.0469 -0.03721,-0.0323 -0.07815,-0.0549 -0.104196,-0.0549 -0.06141,0 -0.128384,0.0436 -0.128384,0.0808 0,0.0177 -0.02233,0.0404 -0.05024,0.0519 -0.05396,0.0227 -0.09676,0.12933 -0.09861,0.23925 0,0.0614 -0.04279,0.12935 -0.08188,0.12935 -0.01861,0 -0.02791,0.0582 -0.03535,0.22632 l -0.01306,0.22632 0.07257,0.13256 c 0.230721,0.43649 0.28468,0.56905 0.264211,0.64343 -0.02978,0.10826 -0.07258,0.1778 -0.111631,0.1778 -0.03535,0 -0.04279,-0.0129 -0.111642,-0.21823 -0.0093,-0.0275 -0.06699,-0.18268 -0.128384,-0.34758 -0.145132,-0.38637 -0.195368,-0.59653 -0.186065,-0.76626 0.0074,-0.15519 0.05394,-0.25543 0.213976,-0.45752 0.0949,-0.12125 0.115357,-0.13741 0.20839,-0.1665 0.139553,-0.0469 0.47447,-0.12453 0.617739,-0.1455 0.06512,-0.0101 0.165597,-0.0258 0.221418,-0.0388 0.128383,-0.0275 0.199091,-0.0308 0.215836,-0.007 z m 3.403141,0.74366 c 0.0074,0.0711 0.0093,0.13417 0.0037,0.1374 -0.01306,0.0129 -0.145132,-0.0275 -0.182347,-0.0533 -0.01486,-0.0114 -0.03535,-0.0211 -0.04279,-0.0211 -0.0074,0 -0.03721,-0.0162 -0.06699,-0.0356 -0.04839,-0.0291 -0.06139,-0.0322 -0.104208,-0.0145 -0.02791,0.0101 -0.06512,0.0372 -0.0856,0.0583 -0.02048,0.0227 -0.0521,0.0403 -0.0707,0.0403 -0.01676,0 -0.04465,0.0145 -0.05769,0.0339 -0.02605,0.0323 -0.02791,0.0323 -0.106049,0.006 -0.0428,-0.0161 -0.08745,-0.0421 -0.09861,-0.0582 -0.01306,-0.0243 -0.03909,-0.0308 -0.107913,-0.0308 -0.05024,0 -0.126526,-0.0145 -0.171178,-0.0323 -0.05024,-0.0194 -0.122798,-0.0322 -0.187927,-0.0322 -0.05769,0 -0.111643,-0.008 -0.117215,-0.0162 -0.0055,-0.01 -0.05956,-0.0161 -0.117227,-0.0177 h -0.106048 l 0.07442,-0.0259 c 0.139553,-0.0452 0.809385,-0.0452 1.283852,0 0.02047,9e-4 0.03721,-0.006 0.03721,-0.0211 0,-0.0243 0.06512,-0.0436 0.160016,-0.0469 0.04839,-9e-4 0.05024,0 0.06327,0.12934 z m -7.349592,0.10989 0.111643,0.0114 -0.13024,0.0128 c -0.225138,0.0227 -0.517261,0.0727 -0.530286,0.0905 -0.0074,0.0101 -0.04465,0.0211 -0.0856,0.0275 -0.08188,0.0114 -0.146993,0.0356 -0.130241,0.0485 0.0055,0.006 -0.0018,0.0242 -0.01861,0.0388 -0.02978,0.0275 -0.02791,0.0308 0.01676,0.0452 0.02791,0.0101 0.09118,0.0211 0.143267,0.0275 0.0521,0.006 0.09861,0.0162 0.102331,0.0243 0.01674,0.0227 -0.06885,0.12771 -0.122799,0.15358 -0.06512,0.0291 -0.09118,0.0194 -0.09118,-0.0338 0,-0.0243 -0.01306,-0.042 -0.03721,-0.0485 -0.02233,-0.006 -0.03721,-0.0243 -0.03721,-0.0469 0,-0.0501 -0.06885,-0.12289 -0.113496,-0.12289 -0.02047,0 -0.06512,-0.0259 -0.09861,-0.0566 -0.06885,-0.063 -0.10979,-0.0711 -0.145131,-0.0274 -0.01306,0.0162 -0.03909,0.0339 -0.05582,0.0404 -0.02048,0.006 -0.03349,0.0275 -0.03349,0.0501 0,0.0404 -0.02233,0.0614 -0.07442,0.0679 -0.01488,9e-4 -0.04465,0.008 -0.06699,0.0145 -0.03349,0.01 -0.04094,0.004 -0.0521,-0.0436 -0.0074,-0.0339 -0.04652,-0.0841 -0.107914,-0.13741 -0.05394,-0.0469 -0.08931,-0.0874 -0.08,-0.0888 0.01117,-9e-4 0.08933,-0.005 0.176764,-0.006 0.390738,-0.006 0.759147,-0.0227 0.827993,-0.0372 0.08745,-0.0162 0.472605,-0.0194 0.632621,-0.004 z m 6.707664,0.12126 c 0,0.0114 -0.01116,0.0469 -0.02606,0.076 -0.01306,0.0308 -0.03164,0.0888 -0.03721,0.13094 -0.0074,0.0436 -0.02233,0.0776 -0.03163,0.0776 -0.0093,0 -0.03163,-0.0259 -0.04839,-0.0566 -0.02048,-0.0372 -0.04652,-0.0582 -0.08187,-0.0647 -0.03909,-0.008 -0.05394,-0.0227 -0.06327,-0.0583 -0.01487,-0.0599 -0.01116,-0.0646 0.107914,-0.0986 0.120941,-0.0339 0.180484,-0.0356 0.180484,-0.006 z m -0.947072,0.21177 c 0.0055,0.0356 0.02418,0.0874 0.04094,0.11634 0.04279,0.0696 0.03909,0.0857 -0.01487,0.0857 -0.05394,0 -0.05954,0.0194 -0.01486,0.0501 0.04839,0.0372 0.22514,0.28129 0.254909,0.35727 0.03163,0.0841 0.01487,0.10991 -0.07257,0.10991 -0.05209,0 -0.06141,-0.006 -0.07258,-0.0501 -0.0055,-0.0274 -0.01116,-0.0808 -0.01116,-0.11961 0,-0.0727 -0.01861,-0.0922 -0.132113,-0.14225 -0.03909,-0.0177 -0.08,-0.0535 -0.09676,-0.0857 -0.01861,-0.0308 -0.04466,-0.0549 -0.06327,-0.0549 -0.01861,0 -0.04465,-0.006 -0.05954,-0.0145 -0.02048,-0.0114 -0.01306,-0.0194 0.02791,-0.0388 l 0.05395,-0.0243 -0.05024,-0.0177 c -0.03536,-0.0114 -0.04839,-0.0243 -0.04094,-0.042 0.0093,-0.0194 -0.0093,-0.0242 -0.109778,-0.0242 -0.08187,0 -0.126527,-0.008 -0.14141,-0.0227 -0.02606,-0.0275 -0.236302,-0.0452 -0.517264,-0.0436 -0.106049,9.1e-4 -0.191645,-9e-4 -0.191645,-0.005 0,-0.005 0.04839,-0.0243 0.107913,-0.0436 0.09303,-0.0323 0.152574,-0.0372 0.515403,-0.047 0.225141,-0.006 0.44656,-0.0101 0.493075,-0.0101 0.08373,9.1e-4 0.08373,9.1e-4 0.0949,0.0663 z m -5.204254,-0.004 c 0.02418,0.0162 0.02978,0.0323 0.01861,0.0663 -0.0093,0.0372 -0.02048,0.0436 -0.05582,0.0372 -0.05769,-0.0101 -0.0856,0.0227 -0.09861,0.10662 -0.0093,0.0597 -0.01673,0.0679 -0.06327,0.0727 -0.06512,0.006 -0.09118,0.0583 -0.09489,0.18106 -0.0018,0.0711 -0.0093,0.0888 -0.03349,0.0938 -0.02978,0.005 -0.03351,-0.0114 -0.03351,-0.1649 v -0.16974 l -0.05024,-0.005 c -0.04464,-0.005 -0.05394,-0.0145 -0.06512,-0.076 -0.0074,-0.0388 -0.02606,-0.0824 -0.04279,-0.0986 -0.04652,-0.0452 -0.03349,-0.0519 0.08931,-0.042 0.08931,0.008 0.303285,-0.004 0.387016,-0.0211 0.0055,0 0.02418,0.008 0.04279,0.0194 z m 0.783335,0.0259 c 0.102331,0.006 0.227001,0.0275 0.279097,0.0436 0.111643,0.0372 0.133968,0.0824 0.04839,0.0971 -0.03163,0.006 -0.07815,0.0274 -0.10606,0.0485 -0.02606,0.0227 -0.05395,0.0356 -0.06327,0.0308 -0.03349,-0.0177 -0.08931,0.0242 -0.102331,0.076 -0.02418,0.10675 -0.02606,0.1099 -0.08,0.1002 -0.04094,-0.006 -0.05582,0 -0.08373,0.0403 -0.04094,0.0599 -0.05954,0.063 -0.08931,0.0129 -0.01306,-0.0194 -0.03164,-0.0404 -0.04465,-0.0469 -0.01676,-0.0101 -0.02048,-0.0436 -0.01488,-0.11483 0.01306,-0.12771 -0.01306,-0.18105 -0.08,-0.16651 -0.03721,0.008 -0.04839,9e-4 -0.07257,-0.0486 -0.02048,-0.0452 -0.03535,-0.0549 -0.06327,-0.0469 -0.03909,0.0101 -0.067,-0.0145 -0.04652,-0.0422 0.01306,-0.0194 0.06699,-0.0177 0.519125,0.0161 z m 0.70891,0.18106 c 0.173041,0.0792 0.199091,0.0971 0.271656,0.18914 0.0949,0.11961 0.28468,0.60785 0.31445,0.80346 0.0074,0.0614 0.03721,0.22634 0.06512,0.36374 0.06885,0.34919 0.06885,0.35889 0.03909,0.39445 -0.02606,0.0308 -0.02791,0.0308 -0.09863,-0.006 -0.191649,-0.10183 -0.253049,-0.16973 -0.321895,-0.35725 -0.04465,-0.12453 -0.01676,-0.32497 0.06885,-0.46399 0.05024,-0.0841 0.05582,-0.21178 0.0093,-0.27804 -0.02418,-0.0356 -0.04839,-0.0485 -0.09676,-0.0518 -0.05024,-0.004 -0.06512,-0.0114 -0.05956,-0.0291 0.02048,-0.0583 0.02232,-0.21503 0.0037,-0.23119 -0.01116,-0.01 -0.0521,-0.0177 -0.08931,-0.0194 -0.06512,0 -0.0707,-0.004 -0.08,-0.0566 -0.01487,-0.0808 -0.03535,-0.10185 -0.0856,-0.0921 -0.03721,0.005 -0.04279,0 -0.04839,-0.0436 -0.0037,-0.0322 -0.02047,-0.0549 -0.04839,-0.0678 -0.03535,-0.0161 -0.09676,-0.0874 -0.09676,-0.11318 0,-0.0259 0.130238,0.005 0.253046,0.0599 z m 2.856108,0.23279 c 0.0074,0.0259 0.04465,0.1002 0.0856,0.16328 0.05397,0.0841 0.06885,0.11962 0.05397,0.13904 -0.01306,0.0194 -0.0017,0.0452 0.05024,0.10512 0.03721,0.0436 0.09861,0.12609 0.135825,0.18428 0.06699,0.1002 0.06886,0.10827 0.0707,0.27321 0.0017,0.20046 -0.04279,0.36535 -0.115357,0.42841 -0.09488,0.0824 -0.100467,0.0486 -0.02048,-0.12772 0.03721,-0.0824 0.06139,-0.17136 0.06699,-0.24734 l 0.01116,-0.11961 -0.05769,-0.0177 c -0.05955,-0.0194 -0.07815,-0.0519 -0.07815,-0.1358 0,-0.0549 -0.02418,-0.0792 -0.08373,-0.0905 -0.03164,-0.005 -0.03721,-0.0161 -0.03164,-0.0889 0.0074,-0.0954 -0.02791,-0.15843 -0.09861,-0.17298 -0.02978,-0.006 -0.04652,-0.0259 -0.05956,-0.0696 -0.01306,-0.0486 -0.02606,-0.063 -0.06512,-0.0694 -0.02791,-0.005 -0.06699,-0.0274 -0.08931,-0.0533 -0.04839,-0.0534 -0.128383,-0.0582 -0.178622,-0.0101 -0.01861,0.0194 -0.09118,0.0663 -0.160016,0.10348 -0.122799,0.0694 -0.122799,0.0711 -0.135826,0.1568 -0.0055,0.0469 -0.0093,0.10349 -0.0055,0.12611 0.0055,0.0356 -0.0017,0.042 -0.06885,0.0485 -0.08931,0.0114 -0.182341,-0.0211 -0.215835,-0.076 -0.0707,-0.11633 -0.277236,-0.0243 -0.277236,0.12454 0,0.0422 -0.0055,0.0485 -0.0521,0.0485 -0.06141,0 -0.111643,0.0404 -0.132111,0.10662 -0.0093,0.0356 -0.02791,0.0486 -0.07442,0.0566 -0.100478,0.0178 -0.122799,0.0501 -0.119086,0.16812 0.0017,0.0889 -0.0017,0.10512 -0.03349,0.11319 -0.01861,0.006 -0.03535,0.0177 -0.03535,0.0259 0,0.008 -0.02233,0.0145 -0.04839,0.0145 h -0.04839 l 0.01306,0.13257 c 0.0074,0.0744 0.02233,0.14711 0.03163,0.16327 0.02978,0.0501 0.0037,0.0792 -0.06327,0.0727 -0.06141,-0.005 -0.06141,-0.006 -0.09117,-0.13741 -0.04465,-0.18915 -0.06327,-0.49791 -0.03536,-0.58521 0.01117,-0.0372 0.0521,-0.10675 0.08931,-0.15196 0.126526,-0.15682 0.267935,-0.30392 0.297705,-0.31363 0.01861,-0.005 0.120943,-0.0452 0.228862,-0.0874 0.107913,-0.0436 0.215835,-0.0792 0.238162,-0.0792 0.04465,0 0.50424,-0.0792 0.524707,-0.0905 0.0074,-0.004 0.100478,-0.0145 0.206533,-0.0242 0.133969,-0.0114 0.195368,-0.0243 0.206532,-0.0404 0.01116,-0.0161 0.03909,-0.0227 0.08373,-0.0194 0.05769,0.005 0.06886,0.0114 0.08,0.0533 z m -0.584247,1.6538 c -0.01116,0.0889 -0.02418,0.11962 -0.100479,0.21662 -0.05024,0.0631 -0.119083,0.13419 -0.154435,0.16005 -0.06327,0.0469 -0.130239,0.0614 -0.130239,0.0308 0,-0.0338 0.154432,-0.28453 0.221418,-0.35889 0.03721,-0.0404 0.08187,-0.0971 0.09861,-0.12609 0.05024,-0.0792 0.07815,-0.047 0.06512,0.0776 z m -0.997313,0.4672 c 0.193508,0.18106 0.240026,0.25705 0.240026,0.39447 0,0.0808 -0.06327,0.18428 -0.111642,0.18428 -0.03721,0 -0.130255,-0.21825 -0.148855,-0.34757 -0.0093,-0.0583 -0.02791,-0.13742 -0.04466,-0.17783 -0.05212,-0.13094 -0.03535,-0.14549 0.06512,-0.0533 z m 0.928468,0.23118 c 0.09676,0.006 0.234444,0.0243 0.303286,0.0388 0.0707,0.0145 0.160017,0.0259 0.200952,0.0259 0.04092,0 0.133968,0.0129 0.208392,0.0274 0.184207,0.0388 0.576805,0.0404 0.654952,0.004 0.05954,-0.0291 0.338639,-0.0518 0.355386,-0.0291 0.01861,0.0259 -0.167461,0.11318 -0.301426,0.14387 -0.04279,0.008 -0.10979,0.0436 -0.152573,0.076 -0.173042,0.13903 -0.266075,0.19723 -0.314452,0.19885 -0.01306,0 -0.07442,0.0322 -0.137697,0.0727 -0.06327,0.0404 -0.12467,0.0727 -0.135825,0.0727 -0.01306,0 -0.06141,0.0323 -0.10979,0.0711 -0.05212,0.0452 -0.117214,0.0808 -0.1656,0.0922 -0.0949,0.0227 -0.191647,0.0969 -0.232582,0.17621 -0.04465,0.0841 -0.08,0.1132 -0.135825,0.1132 -0.02791,0 -0.067,0.0161 -0.08746,0.0356 -0.0763,0.0711 -0.17304,0.23118 -0.17304,0.28293 0,0.0485 -0.0055,0.0533 -0.05394,0.0533 -0.100479,0 -0.187927,0.14388 -0.187927,0.31361 0,0.10513 0.111642,0.40254 0.215836,0.57229 0.05582,0.0921 0.100467,0.17622 0.100467,0.18753 0,0.042 -0.150716,0.30069 -0.174904,0.30069 -0.03164,0 -0.04279,-0.0404 -0.06699,-0.22146 -0.0093,-0.0776 -0.03163,-0.17945 -0.04839,-0.22311 -0.01676,-0.0452 -0.03721,-0.10348 -0.04465,-0.12932 -0.0074,-0.0275 -0.04094,-0.12453 -0.07071,-0.21824 -0.08373,-0.25544 -0.130238,-0.5642 -0.171179,-1.13649 -0.02233,-0.31686 -0.02233,-0.31523 0.163737,-0.49467 0.04466,-0.0452 0.07816,-0.0938 0.07816,-0.11647 0,-0.0501 0.08931,-0.18268 0.174902,-0.26351 0.05024,-0.0469 0.07442,-0.0583 0.09861,-0.0485 0.01861,0.006 0.113496,0.0177 0.210255,0.0227 z m -3.220796,1.19469 c 0.01487,0.008 -0.01306,0.0177 -0.08373,0.0243 -0.06139,0.006 -0.167457,0.0259 -0.240025,0.042 -0.23258,0.0533 -0.279097,0.0549 -0.342359,0.0145 -0.05024,-0.0324 -0.06327,-0.0338 -0.128383,-0.0177 -0.04094,0.0114 -0.08931,0.0194 -0.111643,0.0194 -0.02048,0 -0.04094,0.0114 -0.04839,0.0243 -0.0055,0.013 -0.04839,0.0436 -0.0949,0.0696 -0.106061,0.0566 -0.225141,0.17945 -0.251189,0.25865 -0.01116,0.0323 -0.02606,0.11318 -0.03162,0.1762 -0.0055,0.0646 -0.01673,0.11799 -0.02418,0.11799 -0.01861,0 -0.05209,-0.0646 -0.06139,-0.12126 -0.01488,-0.0727 0.02233,-0.34919 0.05394,-0.40254 0.01488,-0.0259 0.02606,-0.0598 0.02606,-0.076 0,-0.0518 0.05212,-0.0793 0.154435,-0.0793 0.05394,-9.1e-4 0.160016,-0.0145 0.236303,-0.0323 0.113496,-0.0242 0.212115,-0.0308 0.530286,-0.0308 0.215837,0 0.401902,0.005 0.416787,0.0128 z m 3.927845,0.19561 c 0,0.0969 -0.04094,0.12289 -0.100478,0.0663 -0.03721,-0.0356 -0.01861,-0.0841 0.03909,-0.11318 0.04466,-0.0211 0.06141,-0.008 0.06141,0.0469 z m -2.318376,0.29098 c 0.39818,0.1358 0.532146,0.20048 0.619597,0.29748 0.04279,0.0485 0.08373,0.10827 0.08931,0.13255 0.04465,0.18753 0.08373,0.32171 0.124654,0.44781 0.06512,0.20207 0.115357,0.51408 0.154437,0.97319 0.01676,0.19562 0.03721,0.38152 0.04839,0.41225 0.02232,0.076 0.02048,0.16166 -0.0037,0.16166 -0.02606,0 -0.178624,-0.076 -0.260494,-0.13094 -0.03534,-0.0243 -0.08745,-0.0533 -0.115356,-0.0647 -0.06141,-0.0242 -0.124669,-0.11318 -0.124669,-0.1762 0,-0.0404 0.05024,-0.17461 0.113495,-0.29909 0.0074,-0.0177 0.03349,-0.0873 0.05394,-0.15357 0.02233,-0.0663 0.05212,-0.15358 0.06512,-0.194 0.03721,-0.10347 0.05209,-0.23118 0.03909,-0.29745 l -0.01306,-0.0566 -0.122798,0.0101 c -0.117227,0.0101 -0.122799,0.008 -0.107914,-0.0211 0.02791,-0.0566 0.03164,-0.15359 0.0093,-0.22794 l -0.02418,-0.0727 -0.07257,0.0101 c -0.07815,0.0114 -0.09118,-0.008 -0.04279,-0.0646 0.02791,-0.0323 0.03535,-0.0986 0.01676,-0.14225 -0.0074,-0.0194 -0.03721,-0.0259 -0.102331,-0.0259 -0.08931,0 -0.08931,0 -0.109778,-0.063 -0.02606,-0.0824 -0.06512,-0.11155 -0.115356,-0.0841 -0.04094,0.0227 -0.03909,0.0227 -0.06885,-0.0274 -0.01306,-0.0227 -0.03909,-0.0356 -0.06885,-0.0356 -0.02418,0 -0.05024,-0.0114 -0.05582,-0.0243 -0.01676,-0.0388 -0.0707,-0.0291 -0.126527,0.0227 -0.02978,0.0274 -0.07442,0.0501 -0.102331,0.0533 -0.04652,0.005 -0.04839,0.0101 -0.04279,0.0841 l 0.0055,0.0776 -0.06141,-0.0101 c -0.05582,-0.008 -0.06699,-0.005 -0.0949,0.0372 -0.01676,0.0259 -0.03164,0.068 -0.03164,0.0954 0,0.0583 -0.08188,0.11797 -0.100467,0.0744 -0.0055,-0.0145 -0.01116,-0.068 -0.01116,-0.11961 0,-0.0519 -0.0074,-0.11318 -0.01861,-0.13741 -0.01487,-0.0338 -0.02606,-0.0388 -0.06699,-0.0308 l -0.04839,0.0114 0.01306,-0.0889 c 0.01486,-0.10184 -0.0074,-0.13094 -0.06699,-0.0841 -0.03163,0.0259 -0.04094,0.0259 -0.05394,0.006 -0.01116,-0.0129 -0.01861,-0.0436 -0.01861,-0.0663 0,-0.0519 -0.02791,-0.0727 -0.10606,-0.076 -0.04652,-0.004 -0.06699,0.006 -0.08931,0.0356 -0.01676,0.0227 -0.0521,0.042 -0.08,0.0452 -0.04279,0.005 -0.05024,0.0129 -0.05582,0.0663 -0.0055,0.0549 -0.01116,0.0614 -0.05395,0.0566 -0.04093,-0.005 -0.0521,0.006 -0.08745,0.0841 -0.04093,0.0857 -0.04465,0.0888 -0.104196,0.0841 -0.03535,-9.1e-4 -0.06699,-0.006 -0.06885,-0.01 -0.0037,-0.004 0.0093,-0.0452 0.03164,-0.0921 0.04839,-0.11319 0.04839,-0.14389 -0.0017,-0.14389 -0.04279,0 -0.04279,-0.0259 0.0037,-0.12453 0.02418,-0.0501 0.02232,-0.0549 -0.03909,-0.1099 -0.04464,-0.0404 -0.05768,-0.0614 -0.04279,-0.0744 0.03349,-0.0291 0.41865,-0.0452 0.90614,-0.0356 l 0.463304,0.008 z m 2.290467,0.0274 c -0.01486,0.12932 -0.02418,0.14387 -0.22328,0.34434 -0.204671,0.20531 -0.368409,0.34919 -0.375853,0.32817 -0.0093,-0.0243 0.07816,-0.15035 0.212115,-0.30392 0.189785,-0.21987 0.24933,-0.30231 0.238168,-0.32979 -0.0055,-0.0177 0.01486,-0.0501 0.05394,-0.0874 0.09303,-0.0888 0.10979,-0.0792 0.0949,0.0486 z m 0.602852,0.95542 c 0.102332,0.0338 0.113496,0.0583 0.04279,0.0905 -0.03165,0.0145 -0.06512,0.0501 -0.0856,0.0938 -0.07442,0.15681 -0.08745,0.17621 -0.115357,0.18592 -0.05209,0.0161 -0.06886,-0.0194 -0.03536,-0.0744 0.03164,-0.0549 0.02418,-0.0857 -0.01861,-0.0711 -0.0335,0.0101 -0.03909,-0.0436 -0.0074,-0.0711 0.01306,-0.0114 0.01673,-0.0308 0.01116,-0.0436 -0.02978,-0.0663 -0.150713,-9e-4 -0.282819,0.15035 -0.04465,0.0501 -0.08931,0.0824 -0.120941,0.0874 -0.04094,0.008 -0.05396,0.0227 -0.07442,0.084 -0.02978,0.0954 -0.08,0.14874 -0.163738,0.17945 -0.124669,0.0452 -0.1749,0.11319 -0.193507,0.26514 -0.0055,0.0339 -0.01676,0.042 -0.0949,0.0518 -0.171178,0.0211 -0.212113,0.0711 -0.193508,0.24087 0.0093,0.0922 0.0074,0.0954 -0.03535,0.0954 -0.06885,0 -0.14141,-0.0694 -0.126527,-0.1196 0.0055,-0.0227 0,-0.0938 -0.01306,-0.15843 -0.01116,-0.0646 -0.02233,-0.21663 -0.02048,-0.33626 0.0017,-0.11961 0.0017,-0.24573 0.0037,-0.27806 0,-0.047 0.01487,-0.076 0.06327,-0.12125 0.0335,-0.0338 0.08,-0.0922 0.100478,-0.12933 0.04094,-0.0696 0.120943,-0.13418 0.163738,-0.13418 0.01676,0 0.02606,0.0177 0.02606,0.0485 0,0.0583 0.03721,0.0631 0.126528,0.0163 0.07258,-0.0388 0.130239,-0.0404 0.186064,-0.006 0.05395,0.0323 0.20095,0.0162 0.258634,-0.0308 0.03909,-0.0308 0.04465,-0.0308 0.161873,-0.005 0.163741,0.0356 0.217698,0.0338 0.228861,-0.006 0.01306,-0.0404 0.09303,-0.042 0.208394,-0.004 z m -4.379981,0.1649 c 0.02418,0.042 0.06512,0.0986 0.09118,0.1261 0.08,0.0808 0.0521,0.0954 -0.04465,0.0259 -0.06327,-0.0469 -0.174901,-0.2247 -0.156295,-0.25058 0.01676,-0.0243 0.05955,0.0145 0.109789,0.0986 z m -0.576804,0.0905 0.05582,0.0211 h -0.06512 c -0.03535,0 -0.0949,-0.0145 -0.130239,-0.0308 l -0.06512,-0.0323 0.07442,0.0101 c 0.04094,0.006 0.100478,0.0211 0.130242,0.0323 z m 7.544957,0.34595 c 0,0.008 -0.03164,0.0163 -0.06885,0.0145 -0.06327,-9.2e-4 -0.06512,-0.004 -0.02418,-0.0145 0.06698,-0.0177 0.09303,-0.0177 0.09303,0 z m -1.609466,0.36537 c -0.02233,0.11154 -0.156296,0.27966 -0.303288,0.38474 -0.148852,0.10676 -0.223277,0.14711 -0.241887,0.13257 -0.0055,-0.006 0.03164,-0.0486 0.08373,-0.0954 0.111643,-0.10022 0.238166,-0.24412 0.321893,-0.36697 0.09676,-0.14066 0.163739,-0.16652 0.139555,-0.0549 z m -1.114532,0.22309 c 0.04279,0.11633 0.02978,0.13903 -0.07443,0.13903 -0.04651,0 -0.08745,-0.006 -0.09489,-0.0163 -0.02048,-0.0275 0.08373,-0.21015 0.120941,-0.21015 0.0093,0 0.03165,0.0388 0.04839,0.0873 z m 0.0017,0.62724 c -0.04279,0.0841 -0.279101,0.30877 -0.405625,0.38151 -0.126527,0.0744 -0.173042,0.0776 -0.07442,0.008 0.06885,-0.0501 0.344221,-0.32332 0.411203,-0.40902 0.02418,-0.0308 0.05397,-0.0614 0.06512,-0.0679 0.02978,-0.0194 0.03164,0.0275 0.0037,0.0874 z m 0.526563,0.0177 c 0,0.0211 -0.210253,0.12932 -0.329335,0.17136 -0.100479,0.0356 -0.107914,0.0114 -0.01676,-0.0549 0.150713,-0.10663 0.346083,-0.17298 0.346083,-0.11634 z m -1.585279,0.23279 c 0.05956,0.0518 0.133969,0.12288 0.165599,0.1568 0.09861,0.10675 0.102342,0.2732 0.01306,0.40901 -0.07442,0.11318 -0.0949,0.0969 -0.163737,-0.14712 -0.02978,-0.0971 -0.0763,-0.23926 -0.106061,-0.31524 -0.03164,-0.076 -0.05953,-0.15196 -0.06699,-0.16813 -0.02048,-0.0566 0.05212,-0.0259 0.158154,0.0646 z m 1.827165,-0.0274 c 0.0428,0.0372 0.03536,0.0646 -0.01676,0.0646 -0.04465,0 -0.08,-0.0372 -0.06512,-0.0711 0.01486,-0.0338 0.03721,-0.0323 0.08186,0.006 z"
           id="path1-1"
           style="fill:#1c8c05;fill-opacity:1;stroke:none;stroke-width:0.00173435" /></g></g></g></svg>
