<?xml version="1.0" encoding="UTF-8" standalone="no"?>
<!-- Created with Inkscape (http://www.inkscape.org/) -->

<svg
   version="1.1"
   id="svg1"
   width="291.75586"
   height="298.47406"
   viewBox="0 0 291.75586 298.47406"
   sodipodi:docname="historical-marker.png"
   xml:space="preserve"
   xmlns:inkscape="http://www.inkscape.org/namespaces/inkscape"
   xmlns:sodipodi="http://sodipodi.sourceforge.net/DTD/sodipodi-0.dtd"
   xmlns="http://www.w3.org/2000/svg"
   xmlns:svg="http://www.w3.org/2000/svg"><defs
     id="defs1"><filter
       inkscape:collect="always"
       style="color-interpolation-filters:sRGB"
       id="filter8"
       x="-0.30224301"
       y="-0.30224298"
       width="1.604486"
       height="1.604486"><feGaussianBlur
         inkscape:collect="always"
         stdDeviation="12.401288"
         id="feGaussianBlur8" /></filter></defs><sodipodi:namedview
     id="namedview1"
     pagecolor="#ffffff"
     bordercolor="#000000"
     borderopacity="0.25"
     inkscape:showpageshadow="2"
     inkscape:pageopacity="0.0"
     inkscape:pagecheckerboard="0"
     inkscape:deskcolor="#d1d1d1" /><ellipse
     style="fill:#815303;fill-opacity:1;stroke:none;stroke-width:1.526;stroke-dasharray:none"
     id="path1"
     cx="49.237022"
     cy="49.237026"
     rx="49.237022"
     ry="49.237026"
     inkscape:export-filename="castle.png"
     inkscape:export-xdpi="146.23143"
     inkscape:export-ydpi="146.23143" /><ellipse
     style="fill:#ffffff;fill-opacity:1;stroke:none;stroke-width:0.915576"
     id="path1-1"
     cx="49.237019"
     cy="49.237022"
     rx="29.542212"
     ry="29.542215" /><g
     id="g6"
     transform="matrix(7.5,0,0,7.1503532,34.237019,25.998374)"
     style="fill:#815303;fill-opacity:1;stroke:none"><path
       d="M -1.3763932,4.5000001 H 1.3763932 A 0.2,0.2 -90 0 1 1.5552787,4.6105573 L 2,5.5000001 v 0.8 a 0.2,0.2 0 0 1 -0.2,0.2 H 1.2 a 0.2,0.2 90 0 1 -0.2,-0.2 v -0.8 H 0.5 v 0.8 a 0.2,0.2 0 0 1 -0.2,0.2 h -0.6 a 0.2,0.2 90 0 1 -0.2,-0.2 v -0.8 L -1,5.5 v 0.8000002 a 0.2,0.2 0 0 1 -0.2,0.2 h -0.6 a 0.2,0.2 90 0 1 -0.2,-0.2 V 5.5 l 0.4447213,-0.8894427 a 0.2,0.2 -153.43495 0 1 0.1788855,-0.1105572 z"
       transform="matrix(1,0,0,-1,2,6.5000002)"
       stroke="#646464"
       stroke-width="0.001cm"
       stroke-linecap="round"
       stroke-linejoin="round"
       fill="none"
       id="path1-15"
       style="fill:#815303;fill-opacity:1;stroke:none" /><path
       d="M -1.7616156,0 H 1.7616156 A 0.2,0.2 -90 0 1 1.9585723,0.2347571 L 1.25,4.2500001 h -2.5 L -1.9585723,0.2347571 A 0.2,0.2 169.99202 0 1 -1.7616156,0 Z"
       transform="matrix(1,0,0,-1,2,6.5000002)"
       stroke="#646464"
       stroke-width="0.001cm"
       stroke-linecap="round"
       stroke-linejoin="round"
       fill="none"
       id="path2"
       style="fill:#815303;fill-opacity:1;stroke:none" /></g><ellipse
     style="fill:#1c8c04;fill-opacity:1;stroke:none;stroke-width:1.526;stroke-dasharray:none"
     id="path1-9"
     cx="49.237022"
     cy="149.23703"
     rx="49.237022"
     ry="49.237026"
     inkscape:export-filename="tree.png"
     inkscape:export-xdpi="146.23143"
     inkscape:export-ydpi="146.23143" /><ellipse
     style="fill:#ffffff;fill-opacity:1;stroke:none;stroke-width:0.915576"
     id="path1-1-0"
     cx="49.237019"
     cy="149.23703"
     rx="29.542212"
     ry="29.542215" /><ellipse
     style="fill:#1332b2;fill-opacity:1;stroke:none;stroke-width:1.526;stroke-dasharray:none"
     id="path1-9-1"
     cx="49.237022"
     cy="249.23703"
     rx="49.237022"
     ry="49.237026"
     inkscape:export-filename="monument.png"
     inkscape:export-xdpi="146.23143"
     inkscape:export-ydpi="146.23143" /><ellipse
     style="mix-blend-mode:normal;fill:#000000;fill-opacity:0.439364;stroke:none;stroke-width:1.526;stroke-dasharray:none;filter:url(#filter8)"
     id="path1-9-1-8"
     cx="154.9574"
     cy="199.98819"
     rx="49.237022"
     ry="49.237026"
     inkscape:export-filename="shadow.png"
     inkscape:export-xdpi="144"
     inkscape:export-ydpi="144"
     transform="matrix(1.0899558,0,0,1.0899558,36.752508,-43.880077)" /><ellipse
     style="fill:#ffffff;fill-opacity:1;stroke:none;stroke-width:0.915576"
     id="path1-1-0-9"
     cx="49.237015"
     cy="249.23703"
     rx="29.542212"
     ry="29.542215" /><g
     style="fill:#1c8c04;fill-opacity:1"
     id="g7"
     transform="matrix(2.9048829,0,0,2.9048829,99.940617,146.26308)"><path
       d="m -17.03861,-6.7534178 c -0.197916,-0.2968162 -0.634083,-0.2968162 -0.832,0 l -3,4.5 c -0.221068,0.3322076 0.01696,0.7767939 0.416,0.777 h 0.098 l -2.022,3.235 c -0.20814,0.3330244 0.03128,0.7650009 0.424,0.765 h 0.191 l -1.638,3.276 c -0.1666,0.332469 0.07512,0.723988 0.447,0.724 h 4.5 v 2.5 h 2 v -2.5 h 4.5 c 0.371876,-1.2e-5 0.6136,-0.391531 0.447,-0.724 l -1.637,-3.276 h 0.191 c 0.392719,9e-7 0.632141,-0.4319756 0.424,-0.765 l -2.023,-3.235 h 0.098 c 0.39904,-2.061e-4 0.637068,-0.4447924 0.416,-0.777 z"
       id="path1-6"
       style="fill:#1c8c04;fill-opacity:1"
       sodipodi:nodetypes="ccccccsccccccccccsccccc" /></g><g
     style="fill:#1332b2;fill-opacity:1;stroke:none"
     id="g8"
     transform="matrix(3.1507772,0,0,3.1507772,24.030786,221.79499)"><path
       d="m 8.0000034,0.69936515 c 0,0 -2.011236,1.55591615 -1.9409429,2.32909965 V 11.568499 H 4.5063064 c -0.4301207,0 -0.7763772,0.346254 -0.7763772,0.776355 v 1.552747 h -0.776377 c -0.4301053,0 -0.7763772,0.346253 -0.7763772,0.776355 v 0.776373 h 11.645657 v -0.776373 c 0,-0.430102 -0.346272,-0.776355 -0.776377,-0.776355 h -0.776377 v -1.552747 c 0,-0.430101 -0.346257,-0.776355 -0.776378,-0.776355 H 9.9409463 V 3.0284648 c 0,-0.7763659 -1.9409429,-2.32909965 -1.9409429,-2.32909965 z"
       id="path11719"
       style="color:#000000;display:inline;overflow:visible;visibility:visible;fill:#1332b2;fill-opacity:1;stroke:none;stroke-width:1.00157;stroke-linejoin:round;stroke-dasharray:none;stroke-opacity:1;marker:none;enable-background:accumulate" /></g></svg>
