<?xml version="1.0" encoding="UTF-8" standalone="no"?>
<svg
   version="1.1"
   id="New_Zealand"
   x="0px"
   y="0px"
   width="195.97839"
   height="247.08289"
   viewBox="0 0 195.97839 247.08288"
   enable-background="new 0 0 1927.56 2432.122"
   xml:space="preserve"
   sodipodi:docname="icon.svg"
   inkscape:version="1.3.2 (091e20e, 2023-11-25, custom)"
   xmlns:inkscape="http://www.inkscape.org/namespaces/inkscape"
   xmlns:sodipodi="http://sodipodi.sourceforge.net/DTD/sodipodi-0.dtd"
   xmlns="http://www.w3.org/2000/svg"
   xmlns:svg="http://www.w3.org/2000/svg"><sodipodi:namedview
   id="namedview1"
   pagecolor="#ffffff"
   bordercolor="#000000"
   borderopacity="0.25"
   inkscape:showpageshadow="2"
   inkscape:pageopacity="0.0"
   inkscape:pagecheckerboard="0"
   inkscape:deskcolor="#d1d1d1"
   inkscape:zoom="3.3713383"
   inkscape:cx="97.883976"
   inkscape:cy="123.54144"
   inkscape:window-width="1920"
   inkscape:window-height="1009"
   inkscape:window-x="1912"
   inkscape:window-y="-8"
   inkscape:window-maximized="1"
   inkscape:current-layer="New_Zealand" /><defs
   id="defs1" />
<path
   fill="#c12838"
   d="m 132.7511,1.9601747 c 0.32,0.17 0.86,0.23 1.21,0.35 0.36,0.12 0.8,0.38 1.16,0.45 2.85003,0.53 4.10903,-1.2 6.53003,-1.6 0.289,0.16 0.689,0.45 1,0.55 1.31,0.44 2.939,0.25 4.319,0.4 3.16,0.33 8.69,1.39 11.561,2.64 l 0.71,0.9 0.08,0.95 c -0.381,0.57 -1.301,1.16 -1.95,1.35 l -0.05,1.09 c 0.76,0.41 3.739,1.8300003 4.08,2.2500003 0.239,0.29 0.369,0.77 0.579,1.1 1.11,1.71 3.16,2.79 5.16,3.04 2.101,0.26 4.15,-0.38 6.23,-0.4 1.13,0.54 1.899,1.58 2.79,2.05 1.05,0.55 4,1.18 5.2,1.09 0.909,-0.06 2.069,-0.56 2.949,-0.49 0.271,0.01 1.96,0.79 2.2,0.99 0.55,0.46 0.9,1.29 1.42,1.8 0.26,0.26 0.641,0.44 0.91,0.7 0.26,0.26 0.45,0.63 0.71,0.9 1.29,1.35 3.12,2.27 4.2,3.84 0.729,1.07 0.979,2.34 1.45,3.54 -0.32,1.57 -1.811,2.39 -2.78,3.49 -0.8,0.91 -0.93,2.15 -1.46,3.2 -0.33,0.65 -0.79,1.3 -1.16,1.94 -1.189,2.03 -2.17,3.5 -4.78,3.59 l -0.75,0.85 c 0.15,0.94 0.33,1.87 0.54,2.8 -0.43,1.03 -0.75,2.39 -1.29,3.34 -0.71,1.24 -2.859,3.17 -3.54,4.59 -0.409,0.87 -0.34,1.28 -1.159,1.99 -0.841,0.74 -2.16,1.25 -2.91,2.05 -0.23,0.25 -0.37,0.72 -0.58,1 -0.22,0.29 -0.61,0.54 -0.79,0.85 -0.37,0.6 -0.51,1.53 -0.83,2.19 -0.67,1.38 -1.74,2.64 -2.04,4.19 -0.33,1.7 -0.03,3.68 -0.83,5.24 -1.4,2.7 -6.05,6.69 -6.57,9.33 -0.159,0.82 -0.02,2.05 0.21,2.85 1.98,1.42 2.45,3.38 3.11,5.6 0.21,0.68 0.54,1.36 0.71,2.03 0.23,0.87 0.46,3.55 0.25,4.39 -0.34,1.34 -1.84,2.87 -3.08,3.44 -0.399,0.19 -0.93,0.21 -1.33,0.4 -0.93,0.46 -1.8,1.789995 -1.989,2.799995 -1.101,5.59 4.34,6.75 3.239,11.02 -0.26,1.02 -1.88,2.88 -2.41,3.99 -0.159,0.35 -0.22,0.83 -0.42,1.15 -0.88,1.46 -1.949,1.41 -2.37,3.48 -0.1,0.51 -0.229,1.34 -0.159,1.86 0.149,1.19 3.149,6.48 4.109,7.28 0.3,0.25 0.79,0.36 1.08,0.6 0.5,0.42 1.021,1.48 1.13,2.1 -0.37,0.92 -0.96,1.07 -1.54,1.69 -0.659,0.71 -1.479,2.29 -1.5,3.25 l -0.909,0.65 c -0.12,0.98 0.13,2.07 0,2.99 -0.141,1 -0.811,1.26 -1.25,1.95 -0.301,0.47 -0.601,1.83 -0.671,2.39 l 0.591,1.1 2.08,1.1 c 0.88,1.15 1.109,3.67 0.659,5.03 -1.35,2.08 -5.42,1.13 -6.529,4.89 -0.391,1.33 -0.49,2.94 -0.25,4.3 0.069,0.39 0.279,0.8 0.38,1.19 0.43,1.71 0.92,5.4 -0.38,6.79 -0.561,0.61 -1.391,0.81 -2.07,1.2 -0.69,0.39 -1.28,0.99 -1.96,1.39 -0.87,0.53 -2.48,1.18 -3.24,1.75 -0.56,0.42 -0.939,1.26 -1.54,1.65 -0.72,0.46 -1.59,0.61 -2.29,1.19 -1.55,1.31 -1.39,3.76 -2.66,5.24 -0.75,0.88 -1.92,1.43 -2.739,2.3 -1.08,1.12 -1.801,2.46 -3,3.49 -1.17,1.01 -2.60103,1.8 -3.86003,2.69 -1.29,0.91 -4.11,3.47 -5.08,4.69 -0.229,0.3 -0.35,0.7 -0.58,1 -0.899,1.22 -2.3,2.83 -3.67,3.48 -0.66,0.31 -1.35,0.54 -2.11,0.41 l -0.909,-0.69 c -0.311,-1.28 -0.881,-2.47 -1.21,-3.75 -1.091,-1.54 -4.96,-1.04 -6.61,-1.34 -0.95,-0.18 -1.69,-0.68 -2.74,-0.55 l -1.33,0.45 c -1.09,0.52 -1.56,1.6 -2.16,2.59 l -2.67,0.8 c -0.89,3.59 4.771,7.41 4.87,11.17 -0.66,1.37 -2.24,2.22 -2.79,3.6 -0.46,1.16 -0.45,2.62 -0.79,3.84 -0.22,0.81 -0.59,1.55 -0.7,2.39 -0.17,1.22 -0.3,3.26 -0.09,4.44 0.07,0.4 0.351,0.8 0.42,1.2 0.141,0.75 0.23,3.8 0.08,4.54 -0.069,0.38 -0.31,0.77 -0.41,1.15 -0.229,0.82 -0.27,1.72 -0.5,2.54 -0.119,0.4 -0.34,0.76 -0.46,1.15 -0.6,2.02 -0.85,4.23 -1.29,6.29 -0.26,1.24004 -0.819,2.45004 -1,3.69004 -0.069,0.54 -0.149,1.16 -0.22,1.84 l -0.14,-0.02 -5.75,-2.25 0.5,-1.75 1.5,-3.50004 -5,-1.5 -1.75,-3.75 -3.25,2.75 c 0,0 -2.75,-2.5 -3.25,-1 -0.5,1.5 -3.5,1.25 -3.5,1.25 l -0.5,-3 c 0,0 -1.75,0.25 -3.25,0.25 -1.5,0 -4.75,0.75 -4.75,0.75 0,0 0.25,-5.5 1,-7 0.75,-1.5 -0.75,-4 -1.5,-3 -0.75,1 -3,2 -3,2 l -0.5,-4.25 -4.5,2.5 -0.25,-5.25 0.5,-3.75 c 0,0 -3,-1 -4.25,-0.5 -1.25,0.5 -4,2.25 -4,2.25 l -2.5,-7.5 -3.25,-0.5 -2.5,-3.5 c 0,0 0.25,-3.25 0.25,-4.5 0,-1.25 -1.25,-4.25 -1.25,-4.25 0,0 -1.75,-0.75 -4,-1.5 -2.25,-0.75 -3.25,-0.75 -3.25,-0.75 0,0 2.5,-4.5 4,-5.75 1.5,-1.25 1.75,-4 1.75,-4 l -5.5,-1.25 c 0,0 -2.25,-2 -3.75,-2 -1.5,0 -4.5,-0.5 -4.5,-0.5 l -4.75,-4 -1.25,10.75 -13.5,-8.75 -11.11000042,-4.73 0.11000002,-0.27 4.75,-7.75 2.5,0.75 1.7500004,-4 2.5,-0.5 -1,-14.25 10,-5.5 18.75,-9.25 3.75,-6.75 1,-5 -0.5,-3.75 1,-4 2.5,-0.75 2,0.75 1.5,-2 h 2.75 l 2.75,-2.25 3.5,-1 0.5,-3 3.25,-1.5 3.25,-1 c 0,0 0,-2.5 0.75,-3.999995 0.75,-1.5 1.5,-2.5 1.5,-2.5 l 4.5,-1.75 -1.5,-3.75 1,-2.5 -3.25,-7.75 1.5,-1.5 2,1.75 3.5,0.5 2.25,2.75 8.25,6.75 8.75,5 5,-14.25 11,-30 15,-13.75 -3.5,-2.25 -1.5,-1.75 -7.25,4 -1.75,-3.5 1.5,-3.25 c 0,0 -0.5,-2.25 0.25,-3.25 0.75,-1 1,-4.75 1,-4.75 0,0 -0.75,-3.75 -1.75,-5 -1,-1.25 -0.5,-4 -0.5,-4 l 4.5,-1.25 4.25,-1.5 9,-0.25 -1,-3.0000003 -0.75,-7.75 -0.05,-0.39000002 c 0.14,-0.02 0.279,-0.04 0.43,-0.06 1.017,0.21 1.288,0.80000002 2.038,1.20000002 z"
   id="path1"
   style="fill:#3eaf32;fill-opacity:1;stroke:#000000;stroke-width:1.5;stroke-dasharray:none;stroke-opacity:1" />
</svg>
